<?xml version="1.0" encoding="UTF-8"?>
<svg width="76px" height="76px" viewBox="0 0 76 76" version="1.1" xmlns="http://www.w3.org/2000/svg" xmlns:xlink="http://www.w3.org/1999/xlink">
    <!-- Generator: Sketch 48.2 (47327) - http://www.bohemiancoding.com/sketch -->
    <title>Group</title>
    <desc>Created with Sketch.</desc>
    <defs></defs>
    <g id="Trip" stroke="none" stroke-width="1" fill="none" fill-rule="evenodd" transform="translate(-219.000000, -10601.000000)">
        <g id="Group" transform="translate(219.000000, 10602.000000)">
            <path d="M74.165,37.353 C74.165,57.581 57.766,73.98 37.538,73.98 C17.31,73.98 0.911,57.581 0.911,37.353 C0.911,17.125 17.31,0.726 37.538,0.726 C57.766,0.726 74.165,17.125 74.165,37.353 Z" id="Stroke-1" stroke="#1B5E92" stroke-width="1.746"></path>
            <path d="M41.928,54.858 L41.933,57.485 L37.056,57.485 L37.056,47.515 L35.429,47.515 L35.429,45.888 L38.681,45.888 L38.681,55.859 L40.306,55.859 L40.276,41.663 L33.696,41.663 L33.696,55.859 L36.081,55.859 L36.081,57.485 L32.071,57.485 L32.071,54.853 C30.25,55.386 29.303,56.135 29.303,56.676 C29.303,57.043 29.818,57.671 31.273,58.229 C32.786,58.812 34.818,59.133 36.992,59.133 C39.166,59.133 41.198,58.812 42.712,58.229 C44.166,57.671 44.682,57.043 44.682,56.676 C44.682,56.135 43.74,55.39 41.928,54.858" id="Fill-3" fill="#1B5E92"></path>
            <polygon id="Fill-4" fill="#1B5E92" points="33.696 40.038 40.272 40.038 40.272 39.388 33.696 39.388"></polygon>
            <path d="M37.538,3.569 C18.88,3.569 3.754,18.695 3.754,37.354 C3.754,56.01 18.88,71.135 37.538,71.135 C56.196,71.135 71.322,56.01 71.322,37.354 C71.322,18.695 56.196,3.569 37.538,3.569 Z M33.701,15.765 C33.701,13.723 35.364,12.062 37.404,12.062 C39.446,12.062 41.107,13.723 41.107,15.765 L41.107,19.894 C41.107,21.936 39.446,23.597 37.404,23.597 C35.364,23.597 33.701,21.936 33.701,19.894 L33.701,15.765 Z M27.922,28.816 C27.922,26.408 29.881,24.449 32.289,24.449 L41.695,24.449 C44.103,24.449 46.063,26.408 46.063,28.816 L46.063,42.592 L42.773,42.592 L42.773,40.965 L44.438,40.965 L44.438,28.816 C44.438,27.305 43.207,26.076 41.695,26.076 L32.289,26.076 C30.777,26.076 29.546,27.305 29.546,28.816 L29.546,40.965 L31.212,40.965 L31.212,42.592 L27.922,42.592 L27.922,28.816 Z M47.783,57.485 L46.148,57.485 C45.781,58.382 44.802,59.168 43.296,59.747 C41.772,60.333 39.808,60.682 37.706,60.748 L37.706,62.362 L36.079,62.362 L36.079,60.741 C34.052,60.661 32.166,60.316 30.688,59.747 C29.182,59.168 28.203,58.382 27.836,57.485 L26.326,57.485 L26.326,55.859 L27.839,55.859 C28.305,54.7 29.785,53.753 32.07,53.167 L32.07,31.042 L31.203,31.042 L31.203,29.417 L33.696,29.417 L33.696,37.762 L40.268,37.762 L40.251,29.417 L42.798,29.417 L42.798,31.042 L41.88,31.042 L41.925,53.171 C44.203,53.755 45.679,54.702 46.146,55.859 L47.783,55.859 L47.783,57.485 Z" id="Fill-5" fill="#1B5E92"></path>
            <path d="M37.405,21.972 C38.55,21.972 39.483,21.039 39.483,19.894 L39.483,15.765 C39.483,14.619 38.55,13.688 37.405,13.688 C36.259,13.688 35.326,14.619 35.326,15.765 L35.326,19.894 C35.326,21.039 36.259,21.972 37.405,21.972" id="Fill-6" fill="#1B5E92"></path>
        </g>
    </g>
</svg>