<?xml version="1.0" encoding="UTF-8"?>
<svg width="25px" height="24px" viewBox="0 0 25 24" version="1.1" xmlns="http://www.w3.org/2000/svg" xmlns:xlink="http://www.w3.org/1999/xlink">
    <!-- Generator: Sketch 48.2 (47327) - http://www.bohemiancoding.com/sketch -->
    <title></title>
    <desc>Created with Sketch.</desc>
    <defs></defs>
    <g id="Page-1" stroke="none" stroke-width="1" fill="none" fill-rule="evenodd">
        <path d="M23.171902,-2.62260437e-05 C23.9062779,-2.62260437e-05 24.5000286,0.593724482 24.5000286,1.32810036 L24.5000286,22.6718758 C24.5000286,23.4062517 23.9062779,24.0000024 23.171902,24.0000024 L17.0625197,24.0000024 L17.0625197,14.7031163 L20.1718985,14.7031163 L20.640649,11.078112 L17.0625197,11.078112 L17.0625197,8.76560922 C17.0625197,7.71873298 17.3437701,7.01560714 18.8593969,7.01560714 L20.7656492,6.99998212 L20.7656492,3.76560326 C20.4375238,3.71872821 19.2968974,3.6249781 17.9843958,3.6249781 C15.2187675,3.6249781 13.3125153,5.31248011 13.3125153,8.40623379 L13.3125153,11.078112 L10.1875115,11.078112 L10.1875115,14.7031163 L13.3125153,14.7031163 L13.3125153,24.0000024 L1.82812658,24.0000024 C1.09375071,24.0000024 0.5,23.4062517 0.5,22.6718758 L0.5,1.32810036 C0.5,0.593724482 1.09375071,-2.62260437e-05 1.82812658,-2.62260437e-05 L23.171902,-2.62260437e-05 Z" id="" fill="#0067A5"></path>
    </g>
</svg>