<?xml version="1.0" encoding="UTF-8"?>
<svg width="25px" height="24px" viewBox="0 0 25 24" version="1.1" xmlns="http://www.w3.org/2000/svg" xmlns:xlink="http://www.w3.org/1999/xlink">
    <!-- Generator: Sketch 48.2 (47327) - http://www.bohemiancoding.com/sketch -->
    <title></title>
    <desc>Created with Sketch.</desc>
    <defs></defs>
    <g id="Page-1" stroke="none" stroke-width="1" fill="none" fill-rule="evenodd">
        <path d="M21.7812754,20.281248 L21.7812754,10.1562359 L19.6718979,10.1562359 C19.8750231,10.7968616 19.9843982,11.4999875 19.9843982,12.2031133 C19.9843982,16.2031181 16.6406442,19.4374969 12.5156393,19.4374969 C8.40625942,19.4374969 5.06250544,16.2031181 5.06250544,12.2031133 C5.06250544,11.4999875 5.17188057,10.7968616 5.37500581,10.1562359 L3.17187819,10.1562359 L3.17187819,20.281248 C3.17187819,20.8124986 3.59375369,21.2343741 4.12500432,21.2343741 L20.8281492,21.2343741 C21.3593999,21.2343741 21.7812754,20.8124986 21.7812754,20.281248 Z M17.3437701,11.953113 C17.3437701,9.37498495 15.1875175,7.28123245 12.5156393,7.28123245 C9.85938616,7.28123245 7.70313359,9.37498495 7.70313359,11.953113 C7.70313359,14.5312411 9.85938616,16.6249936 12.5156393,16.6249936 C15.1875175,16.6249936 17.3437701,14.5312411 17.3437701,11.953113 Z M21.7812754,6.32810632 L21.7812754,3.74997824 C21.7812754,3.15622754 21.2968998,2.67185196 20.7031491,2.67185196 L17.9843958,2.67185196 C17.3906451,2.67185196 16.9062696,3.15622754 16.9062696,3.74997824 L16.9062696,6.32810632 C16.9062696,6.92185703 17.3906451,7.4062326 17.9843958,7.4062326 L20.7031491,7.4062326 C21.2968998,7.4062326 21.7812754,6.92185703 21.7812754,6.32810632 Z M24.5000286,3.07810244 L24.5000286,20.9218737 C24.5000286,22.6093757 23.109402,24.0000024 21.4218999,24.0000024 L3.57812867,24.0000024 C1.89062666,24.0000024 0.5,22.6093757 0.5,20.9218737 L0.5,3.07810244 C0.5,1.39060043 1.89062666,-2.62260437e-05 3.57812867,-2.62260437e-05 L21.4218999,-2.62260437e-05 C23.109402,-2.62260437e-05 24.5000286,1.39060043 24.5000286,3.07810244 Z" id="" fill="#0067A5"></path>
    </g>
</svg>