<?xml version="1.0" encoding="UTF-8"?>
<svg width="25px" height="24px" viewBox="0 0 25 24" version="1.1" xmlns="http://www.w3.org/2000/svg" xmlns:xlink="http://www.w3.org/1999/xlink">
    <!-- Generator: Sketch 48.2 (47327) - http://www.bohemiancoding.com/sketch -->
    <title></title>
    <desc>Created with Sketch.</desc>
    <defs></defs>
    <g id="Page-1" stroke="none" stroke-width="1" fill="none" fill-rule="evenodd">
        <path d="M20.5000238,7.53123275 C19.9062731,7.79685807 19.2812724,7.96873327 18.6093966,8.06248339 C19.2968974,7.6562329 19.812523,6.99998212 20.0625233,6.23435621 C19.4218976,6.60935665 18.7187717,6.89060699 17.9687708,7.03123216 C17.3750201,6.39060639 16.5156441,5.99998093 15.578143,5.99998093 C13.7656408,5.99998093 12.2968891,7.46873268 12.2968891,9.28123484 C12.2968891,9.53123514 12.3125141,9.79686045 12.3750142,10.0312357 C9.6406359,9.89061056 7.21875801,8.59373402 5.59375607,6.59373163 C5.31250574,7.07810721 5.14063053,7.6562329 5.14063053,8.24998361 C5.14063053,9.39060997 5.67188117,10.3906112 6.56250723,10.9843619 C6.01563158,10.9687368 5.50000596,10.8124867 5.00000536,10.5781114 L5.00000536,10.6093614 C5.00000536,12.2031133 6.2031318,13.5312399 7.70313359,13.8281153 C7.42188325,13.9062404 7.20313299,13.9531154 6.90625764,13.9531154 C6.70313239,13.9531154 6.50000715,13.9218654 6.29688191,13.8906153 C6.71875741,15.1874919 7.92188385,16.140618 9.35938556,16.1718681 C8.23438422,17.0468691 6.82813254,17.5781197 5.2812557,17.5781197 C5.01563038,17.5781197 4.75000507,17.5624947 4.50000477,17.5312447 C5.9531315,18.4531208 7.67188355,18.9999964 9.53126077,18.9999964 C15.562518,18.9999964 18.8750219,13.9999905 18.8750219,9.65623529 C18.8750219,9.51561012 18.8750219,9.37498495 18.8593969,9.23435978 C19.5000226,8.78123424 20.0625233,8.20310855 20.5000238,7.53123275 Z M24.5000286,4.49997914 L24.5000286,19.499997 C24.5000286,21.984375 22.4844012,24.0000024 20.0000232,24.0000024 L5.00000536,24.0000024 C2.5156274,24.0000024 0.5,21.984375 0.5,19.499997 L0.5,4.49997914 C0.5,2.01560118 2.5156274,-2.62260437e-05 5.00000536,-2.62260437e-05 L20.0000232,-2.62260437e-05 C22.4844012,-2.62260437e-05 24.5000286,2.01560118 24.5000286,4.49997914 Z" id="" fill="#0067A5"></path>
    </g>
</svg>