<svg width="231" height="65" viewBox="0 0 231 65" xmlns="http://www.w3.org/2000/svg" xmlns:xlink="http://www.w3.org/1999/xlink"><title>Logo_new_2017</title><defs><path id="a" d="M0 .044V65h75.93V.044z"/></defs><g fill="none" fill-rule="evenodd"><path d="M52.466 18.35c-.046.52-1.264 1.036-1.397 1.54-.295 1.104 1.11 3.336.975 4.47-.166 1.462-1.362 4.394-2.513 5.308-1.005.804-5.02 1.116-5.02 1.116s2.936-1.191 3.63-1.954c.784-.868 1.703-3.158 1.813-4.332.133-1.428-1.756-4.302-1.184-5.621.15-.353 1.16-.45 1.322-.804.647-1.411-1.797-5.57-1.536-6.009.958-1.584 4.079 4.447 3.91 6.287zm-28.26-6.147c-.415.266-1.461.336-1.952.283-.462-.045-1.664-.601-1.537-1.046.11-.382 1.075-.058 1.606-.052v-.023l.006.023a.736.736 0 0 0 .202-.023c.197-.058 1.058-.249 1.184-.405.38-.468.329-2.417.214-2.944-.057-.294-.422-.798-3.397-.08l-.092-.024c-.197-.359 1.254-1.018 1.254-1.018s.525-.306 1.605-.306c.474.006 1.173.48 1.352 1.07.277.885.832 3.741-.444 4.545zm-11.114-2.191c-2.045 1.78-2.166-.527-2.166-.527s1.929-.497 2.524.318c.14.18-.358.209-.358.209zm60.132 25.942c.738-2.869 1.027-8.917.525-11.837-.814-4.725-5.471-13.458-8.48-17.188-1.157-1.429-4.021-3.967-5.754-4.569-1.734-.595-5.564-.376-7.331.104-1.416.388-3.785 2.296-5.124 2.898-1.757.786-5.65 1.422-7.574 1.393C36.76 6.721 31.46 5.044 28.74 4.94c-.623-.023-2.483.23-2.483.23s-4.796.082-10.156 1.256c-.48.266-1.634.896-2.27 1.192-1.098.502-3.64.41-4.765.867-.36.144-.966.659-1.296.861C6.362 10.214 2 12.58 2 12.58s.687.098.86.237c.232.18.562.723.578 1.012.03.388-.311 1.157-.577 1.446-.052.058-.29.145-.29.145s1.451 1.209 2.023 1.44c.44.185 1.404.254 1.877.295.434.028 1.3 0 1.733 0 .29 0 1.085-.284 1.156 0 .093.392-1.086.537-1.444.716-.29.146-1.047.278-1.156.579-.07.191.174.613.33.74.387.312 1.946.434 1.946.434l1.906-.74 5.032-1.134v-.006l-.006-.017s2.888-2.337 3.46-1.573c.307.416-1.582 1.099-1.363 1.573.14.306 1.029-.058 1.364 0 .925.156 3.558 1.255 3.558 1.255l.532.22c.86.688 2.391 1.428 4.806 1.11 0 0 2.964-.37 3.483-1.122.44-.63-.416-2.354-.139-3.07.093-.232.62-.469.7-.7.237-.66-.953-2.608-.277-2.793.964-.266 1.357 2.932 1.357 3.77 0 .839-.74.26-.94.422-.527.423.646 1.978.559 2.654-.017.151-.185.434-.278.556-.37.468-1.622.977-1.813 1.538-.185.515.22 1.67.554 2.093.319.406 1.305.92 1.815.984 1.507.18 4.482-1.15 5.724-2.03 1.01-.717 2.287-1.81 1.884-4.61-.11-.734-1.503-1.989-1.26-2.688.109-.313 1.057-.29 1.19-.596.346-.798-1.687-2.845-.976-3.354.878-.625 2.617 2.782 2.09 3.776-.12.22-.67.451-.733.7-.156.601.71 1.752.734 2.371.046 1.255-.393 3.87-1.115 4.892-.786 1.117-3.57 2.273-4.188 3.493-.688 1.354 2.56 3.818 1.536 5.864-.41.816-2.691-1.405-3.489-.977-.809.434-.954 2.59-1.115 3.493-.353 1.943-.288 5.94-.04 7.894.145 1.122 1.08 4.182 1.242 4.702v.011c.007.006.007.012.007.012 0 .005 0 .011.004.017l.006.024c.272.843 3.275 1.949 2.79 2.636-.312.446-2.403-1.046-1.987.839.035.162.15.474.208.63.307.85 1.011 2.597 1.675 3.216.388.358 1.426.757 1.953.838.445.064 1.133-.006 1.802-.145.105-.358.705-.89 1.022-.832.151.023.307.184.44.41.11-.046.207-.087.294-.133a.938.938 0 0 0 .163-.104c-.152-.266-.26-.526-.266-.693-.012-.342.514-1.07.854-1.053.175.006.37.266.532.55.161-.209.324-.429.474-.643-.14-.231-.249-.468-.249-.612-.006-.37.542-1.302.918-1.146a.4.4 0 0 1 .163.14.329.329 0 0 0 .01-.07c.07-1.88-4.256-4.424-3.194-5.975.173-.248 1.023.197 1.226-.034 1.201-1.37-1.26-5.529-.7-7.264.116-.353.982-.746.977-1.115-.018-1.25-3.277-3.62-3.477-3.772.224.133 4.222 2.447 8.687 2.036 2.975-.271 6.158-1.752 8.573-5.887a.557.557 0 0 0 .035-.063s-.011.023-.035.063c-.311.608-2.836 5.558-2.9 8.177-.035 1.608.023 4.847-.277 6.426-.26 1.381-1.093 4.106-1.815 5.308-.34.579-1.525 1.36-1.813 1.961-.203.41-.087 1.4-.278 1.816-.681 1.48-3.223 3.753-4.603 4.609-.381.231-1.317.306-1.676.556-.046.028-.098.068-.15.108-.405.319-1.023.903-.971 1.29.035.244.23.488.5.716a.604.604 0 0 1 .166-.178c.347-.21 1.407.026 1.577.396.078.17.015.433-.113.723.143.062.275.117.384.16.052.021.115.04.174.06.152-.304.319-.568.473-.681.32-.232 1.368-.204 1.579.131.11.179-.02.552-.19.905.299.03.608.05.92.063.138-.306.3-.599.452-.704.352-.243 1.606-.331 1.707.131.031.139-.042.336-.158.547a9.566 9.566 0 0 0 1.321-.175c.885-.19 2.548-1.058 3.214-1.671.82-.758 1.958-2.741 2.374-3.776.062-.162.086-.526.138-.701.103-.358.353-1.08.554-1.394.254-.386.729-.89 1.207-1.41.618-.665 1.249-1.376 1.444-1.943.15-.428-.087-1.37 0-1.817.377-1.855 2.583-5.123 2.936-6.985.12-.653-.058-2.076.277-2.654.294-.515 1.663-.862 1.918-1.393.566-1.204-1.56-2.14-.105-5.31.272-.59 1.78-1.059 1.953-1.678.306-1.075-1.12-3.499-.52-4.435.243-.382 1.468-.179 1.71-.561.78-1.255-2.184-5.332-.803-5.87 1.987-.77 4.102 4.303 3.524 7.79-.196 1.174-1.761 3.1-2.235 4.193-.567 1.312-.688 4.274-1.255 5.586-.57 1.32-2.53 3.493-3.211 4.754-.901 1.66-2.079 5.286-2.513 7.125-.127.55-.052 1.717-.277 2.232-.196.457-.382.868-.566 1.272 1.595.296 4.372.689 5.338.093 1.172-.711 1.732-3.777 1.923-5.135.14-.93-.213-2.852 0-3.77.537-2.28 3.57-6.12 4.155-8.387z" fill="#FFFFFE"/><path d="M57 29.087c.032-.055.047-.087.047-.087a.766.766 0 0 1-.047.087m-8.428-16.838c-.295.417 2.468 4.36 1.737 5.698-.184.335-1.326.428-1.495.762-.647 1.25 1.489 3.976 1.338 5.33-.124 1.114-1.163 3.285-2.05 4.108C47.318 28.871 44 30 44 30s4.539-.295 5.675-1.058c1.3-.866 2.652-3.647 2.84-5.034.152-1.075-1.436-3.192-1.102-4.239.15-.477 1.528-.966 1.58-1.46.19-1.743-3.338-7.463-4.421-5.96" fill="#0F6BA7"/><mask id="b" fill="#fff"><use xlink:href="#a"/></mask><path d="M23.644 6.851c-1.06 0-1.577.304-1.577.304s-1.424.656-1.231 1.012l.09.023c2.922-.712 3.28-.212 3.337.08.113.523.164 2.46-.21 2.925-.124.155-.97.345-1.163.403a.715.715 0 0 1-.199.022l-.006-.022v.022c-.521-.006-1.47-.327-1.577.052-.125.442 1.056.994 1.51 1.04.482.052 1.51-.017 1.918-.282 1.254-.798.708-3.637.436-4.516-.175-.586-.863-1.057-1.328-1.063" fill="#0F6BA7" mask="url(#b)"/><path d="M72.686 36.029c-.574 2.253-3.554 6.068-4.081 8.333-.21.913.136 2.821 0 3.746-.188 1.35-.738 4.396-1.89 5.102-.948.592-3.677.201-5.243-.092.181-.402.363-.81.556-1.264.22-.512.147-1.672.272-2.218.427-1.827 1.583-5.43 2.468-7.079.67-1.253 2.594-3.412 3.155-4.724.557-1.304.676-4.246 1.233-5.55.465-1.086 2.003-2.999 2.195-4.166.568-3.464-1.51-8.504-3.462-7.74-1.356.535 1.555 4.586.79 5.832-.239.38-1.442.178-1.68.558-.59.93.811 3.339.51 4.406-.17.616-1.651 1.081-1.918 1.667-1.43 3.15.66 4.08.103 5.276-.25.528-1.595.873-1.884 1.384-.33.575-.153 1.989-.272 2.637-.347 1.85-2.514 5.098-2.884 6.941-.085.443.147 1.38 0 1.805-.192.564-.811 1.27-1.418 1.93-.47.518-.936 1.018-1.186 1.402-.198.31-.443 1.03-.545 1.385-.05.173-.074.535-.135.696-.409 1.028-1.527 3-2.333 3.752-.653.609-2.287 1.471-3.156 1.66a9.296 9.296 0 0 1-1.298.174c.114-.21.186-.405.156-.543-.1-.46-1.331-.372-1.678-.13-.15.104-.308.395-.444.7-.306-.014-.61-.034-.904-.063.169-.351.295-.722.187-.9-.207-.333-1.235-.36-1.55-.13-.152.112-.316.375-.466.677-.057-.02-.119-.039-.17-.06a9.433 9.433 0 0 1-.377-.16c.125-.287.187-.549.11-.718-.167-.366-1.208-.6-1.548-.393a.597.597 0 0 0-.164.177c-.265-.226-.456-.468-.491-.71-.051-.385.556-.966.954-1.282.05-.04.102-.08.148-.109.352-.247 1.271-.322 1.646-.552 1.355-.85 3.852-3.108 4.522-4.58.187-.413.073-1.395.272-1.803.284-.598 1.448-1.374 1.782-1.948.709-1.196 1.526-3.902 1.782-5.275.295-1.57.238-4.787.272-6.384.063-2.603 2.543-7.521 2.85-8.125-2.373 4.108-5.5 5.58-8.422 5.849-4.386.409-8.314-1.89-8.534-2.023.197.15 3.398 2.506 3.416 3.747.005.367-.846.758-.96 1.11-.55 1.723 1.868 5.855.688 7.216-.2.23-1.034-.212-1.205.034-1.043 1.54 3.207 4.07 3.138 5.937a.33.33 0 0 1-.01.069.395.395 0 0 0-.16-.139c-.37-.155-.908.77-.901 1.139 0 .143.107.378.244.608-.148.213-.307.431-.466.638-.159-.282-.35-.54-.523-.546-.334-.017-.85.707-.838 1.046.005.167.112.425.261.69a.92.92 0 0 1-.16.103 3.738 3.738 0 0 1-.29.132c-.13-.225-.283-.385-.43-.408-.313-.058-.902.471-1.005.827-.658.138-1.333.207-1.77.144-.518-.08-1.537-.477-1.919-.833-.652-.615-1.343-2.35-1.645-3.195a6.084 6.084 0 0 1-.204-.626c-.41-1.873 1.645-.39 1.952-.834.476-.683-2.474-1.78-2.741-2.619l-.006-.024c-.004-.005-.004-.011-.004-.016 0 0 0-.006-.007-.012v-.012c-.16-.516-1.078-3.556-1.22-4.672-.243-1.94-.307-5.913.039-7.843.159-.896.301-3.04 1.096-3.47.783-.425 3.024 1.78 3.427.97 1.005-2.033-2.185-4.48-1.509-5.826.607-1.212 3.342-2.361 4.114-3.47.71-1.017 1.14-3.615 1.095-4.86-.023-.616-.874-1.76-.72-2.357.061-.247.602-.477.72-.695.517-.989-1.191-4.373-2.053-3.752-.7.505 1.298 2.54.958 3.332-.13.305-1.062.282-1.168.592-.24.695 1.128 1.942 1.237 2.671.396 2.782-.858 3.868-1.85 4.58-1.22.874-4.143 2.196-5.624 2.017-.5-.063-1.47-.574-1.782-.977-.33-.42-.727-1.568-.545-2.08.188-.557 1.419-1.063 1.781-1.527.092-.122.256-.403.273-.553.085-.672-1.067-2.217-.55-2.637.199-.161.925.414.925-.42 0-.832-.387-4.01-1.333-3.746-.664.184.504 2.12.271 2.776-.078.23-.596.465-.686.695-.273.712.567 2.425.136 3.05-.51.748-3.422 1.115-3.422 1.115-2.372.317-3.875-.419-4.72-1.103l-.523-.218s-2.587-1.092-3.496-1.247c-.329-.058-1.203.304-1.34 0-.214-.471 1.64-1.15 1.34-1.563-.562-.759-3.399 1.563-3.399 1.563l.005.017v.006l-4.942 1.126-1.873.736s-1.53-.121-1.912-.432c-.152-.126-.391-.545-.323-.735.107-.299.851-.43 1.135-.575.352-.178 1.51-.321 1.419-.711-.07-.283-.852 0-1.136 0-.426 0-1.276.028-1.702 0-.465-.041-1.413-.11-1.844-.294-.562-.23-1.986-1.43-1.986-1.43s.233-.087.284-.144c.26-.288.596-1.052.567-1.437-.017-.287-.34-.827-.567-1.005-.171-.139-.846-.236-.846-.236s4.284-2.35 5.668-3.212c.324-.201.92-.713 1.273-.856 1.106-.454 3.602-.363 4.68-.862.625-.293 1.759-.92 2.23-1.184 5.266-1.166 9.977-1.247 9.977-1.247s1.827-.252 2.44-.23c2.672.104 7.877 1.77 10.555 1.805 1.89.028 5.714-.604 7.44-1.385 1.316-.597 3.643-2.494 5.033-2.879 1.736-.477 5.498-.695 7.201-.103 1.702.598 4.516 3.12 5.653 4.54 2.955 3.705 7.53 12.382 8.33 17.077.493 2.9.209 8.91-.516 11.76zm-29.294 20.71s-.04-.133-.108-.334c.233-.098.443-.207.618-.322a.791.791 0 0 0 .115-.086l1.838-.126c-.272-.104-.688-.632-.953-1.007.187-.31.38-.654.557-1.01l1.826.304-1.18-1.224s-.028-.144-.086-.344c.216-.54.359-1.023.387-1.34.13-1.372-2.554-3.073-2.06-4.113.073-.155.573.132.681 0 .602-.736-1.113-6.919-.545-7.637.13-.167.635-2.218 1.232-2.5 1.237-.568 2.286-.856 3.392-.924.852-.047 1.742.04 2.775.235 1.442.27 1.147 4.344 1.101 5.826-.05 1.54-.828 4.597-1.509 5.97-.318.638-1.39 1.627-1.782 2.224-.607.909-1.453 2.523-2.333 3.879-.533.828-1.077 1.563-1.589 1.994-.442.374-1.69.535-2.11.925-.006.006-.006.006-.01.006-.16-.196-.257-.396-.257-.396zm32.21-32.713c-.789-4.89-5.182-14.067-8.093-18.048-1.385-1.896-5.339-4.764-7.536-5.55-1.957-.702-6.315-.34-8.296.28-1.294.403-3.455 2.224-4.726 2.701-1.64.615-5.108 1.368-6.857 1.39-2.853.035-8.517-1.04-11.37-.993-3.134.052-8.882.431-12.519 1.563-.029.011-.057.028-.069.057-.675.259-1.582 1.115-2.077 1.299-1.055.39-3.427.545-4.43 1.063-.381.195-.892.69-1.239.948-.617.448-2.019 1.08-2.695 1.43-1.31.69-5.243 2.73-5.243 2.73l-.425.719s-.426 1.148 2.127 2.872c0 0 .97.914 2.123 1.293.385.12 1.288.127 1.56.426.125.136.068.55.142.718.119.287.471.816.71 1.005.26.213.913.448 1.242.517.46.098 1.408.092 1.878.058 1.55-.115 5.312-.897 7.23-1.304.431-.013 1.918-.041 2.457.068.857.178 2.412 1.052 3.258 1.287.107.03.334.04.442.076 2.548.792 3.627 1.77 4.835 2.355.374.178 1.168.454 1.51.69.198.143.5.534.68.695.426.373 1.35 1.022 1.782 1.39 2.837 2.385.823 6.59.415 8.746-.408 2.143-.114 6.574.135 8.74.263 2.263 1.459 6.66 1.92 8.889.215 1.023 1.82 3.648 2.727 4.154 1.107.614 1.453.598 2.36.707.62.074 1.512 0 2.362-.184l.874 1.005.318-.08c-.584.759-1.21 1.856-1.1 2.517.078.483.575 1.055 1.155 1.554l-.304 1.23 1.29 1.176c-.386-.392.13-1.307.13-1.307s.06-.072.15-.19c.114.067.224.127.32.174.208.102.463.184.746.254l1.236 1.591c-.07-.284.088-.877.247-1.36.537.05 1.093.074 1.621.083L49.32 65l.302-1.535c.281-.004.538-.01.756-.016 1.073-.04 3.292-.2 4.245-.695.608-.316 1.521-1.39 1.923-1.942 3.038-4.228 4.042-5.838 4.83-7.493 1.52.604 4.296 1.575 5.386 1.138 1.06-.425 1.879-2.896 2.395-3.919.329-.654.828-2.057.958-2.775.125-.69.062-2.115.278-2.781.732-2.259 4.137-5.901 4.795-8.188.885-3.063.92-9.62.415-12.768z" fill="#0067A5" mask="url(#b)"/><path d="M12 10.111s.095 1.708 1.7.39c0 0 .39-.022.28-.154-.466-.604-1.98-.236-1.98-.236" fill="#0F6BA7"/><path d="M106.948 21.562l-1.257-3.976a29.778 29.778 0 0 1-.678-2.651c-.226.946-.478 1.94-.704 2.65l-1.257 3.977h3.896zM103.253 12h3.494L112 28h-3.067l-1.282-4.094h-5.302L101.092 28H98l5.253-16zm21.813 6.085c0-2.486-1.26-3.67-3.078-3.67-1.043 0-2.158.232-3.08.534v10.636h3.08c2.109 0 3.078-.929 3.078-3.483v-4.017zM116 28V13.3c1.89-.673 4.024-1.3 5.988-1.3 3.249 0 6.012 2.066 6.012 5.852v4.436c0 3.784-2.254 5.712-6.012 5.712H116zm14-16h3.092l3.217 10.414c.226.734.478 1.8.704 2.77.2-.97.452-2.012.678-2.77L140.933 12H144l-5.253 16h-3.494L130 12m16 0h9.773v2.462h-6.743v4.284h5.708l-.152 2.366h-5.556v4.426H156V28h-10V12m13 0h2.435l6.603 10.39a42.706 42.706 0 0 1-.075-2.367V12H171v16h-2.51l-6.579-10.296c.077.9.101 1.75.101 2.438V28H159V12m19.454 2.462H174V12h12v2.462h-4.429V28h-3.117V14.462M190 12h2.927v10.333c0 1.975 1.242 3.252 3.073 3.252 1.805 0 3.071-1.277 3.071-3.252V12H202v10.542c0 3.252-2.709 5.458-6 5.458-3.293 0-6-2.206-6-5.458V12m21.573 7.502c1.417 0 2.346-1.017 2.346-2.508 0-1.49-.93-2.532-2.346-2.532h-2.641v5.04h2.641zM206 12h5.695c3.178 0 5.208 2.32 5.208 4.994 0 1.988-1.174 3.715-3.107 4.426L217 28h-3.3l-2.836-6.202h-1.932V28H206V12zm15 0h9.774v2.462h-6.745v4.284h5.71l-.151 2.366h-5.559v4.426H231V28h-10V12M110 53.294a17.784 17.784 0 0 1-5.04.706c-4 0-6.96-2.052-6.96-6.268v-3.465c0-4.215 2.96-6.267 6.96-6.267 1.767 0 3.326.25 5.04.707l-.597 2.302c-1.376-.366-2.805-.639-4.416-.639-2.338 0-3.87 1.163-3.87 4.102v3.055c0 2.986 1.532 4.103 3.87 4.103 1.61 0 3.04-.251 4.416-.639l.597 2.303m10.948-5.732l-1.257-3.976a29.719 29.719 0 0 1-.678-2.651c-.226.946-.478 1.94-.704 2.651l-1.257 3.976h3.896zM117.253 38h3.494L126 54h-3.067l-1.282-4.094h-5.302L115.092 54H112l5.253-16zM130 38h2.436l6.602 10.39a42.693 42.693 0 0 1-.075-2.367V38H142v16h-2.51l-6.578-10.296c.076.9.1 1.751.1 2.438V54H130V38m23.948 9.562l-1.257-3.976a29.715 29.715 0 0 1-.678-2.651c-.226.946-.478 1.94-.704 2.651l-1.257 3.976h3.896zM150.253 38h3.494L159 54h-3.067l-1.282-4.094h-5.302L148.092 54H145l5.253-16zm19.814 6.085c0-2.486-1.26-3.67-3.079-3.67-1.043 0-2.158.232-3.08.534v10.636h3.08c2.109 0 3.079-.929 3.079-3.483v-4.017zM161 54V39.3c1.89-.673 4.024-1.3 5.988-1.3 3.249 0 6.012 2.066 6.012 5.852v4.436c0 3.784-2.255 5.712-6.012 5.712H161zm23.948-6.438l-1.257-3.976a29.595 29.595 0 0 1-.678-2.651c-.227.946-.478 1.94-.705 2.651l-1.257 3.976h3.897zM181.253 38h3.493L190 54h-3.067l-1.282-4.094h-5.302L179.092 54H176l5.253-16z" fill="#1A1919"/></g></svg>