<svg width="225" height="15" viewBox="0 0 225 15" xmlns="http://www.w3.org/2000/svg"><title>SHARE    PRINT </title><path d="M7.948 9.96c0 1.006-.365 1.79-1.094 2.352-.73.563-1.719.844-2.969.844-1.354 0-2.396-.174-3.125-.523v-1.281c.469.197.98.354 1.532.468a8.056 8.056 0 0 0 1.64.172c.886 0 1.552-.168 2-.504.448-.336.672-.803.672-1.402 0-.396-.08-.72-.238-.973-.16-.252-.425-.485-.797-.699-.373-.213-.939-.456-1.7-.726-1.062-.38-1.821-.831-2.277-1.352-.455-.52-.683-1.2-.683-2.04 0-.88.33-1.58.992-2.1.661-.522 1.536-.782 2.625-.782 1.135 0 2.18.208 3.133.625l-.414 1.156c-.943-.396-1.86-.593-2.75-.593-.703 0-1.253.15-1.649.453-.396.302-.594.721-.594 1.257 0 .396.073.72.22.973.145.253.391.485.737.695.347.211.877.444 1.59.7 1.198.427 2.022.885 2.473 1.375.45.49.676 1.125.676 1.906zM19.51 13h-1.328V7.625h-6.016V13H10.84V1.578h1.328v4.86h6.016v-4.86h1.328V13zm10.868 0l-1.422-3.633H24.38L22.973 13h-1.344l4.516-11.469h1.117L31.754 13H30.38zm-1.836-4.828l-1.328-3.54a18.956 18.956 0 0 1-.531-1.648c-.115.5-.279 1.05-.492 1.649l-1.344 3.539h3.695zm6.665.078V13H33.88V1.578h3.133c1.4 0 2.436.268 3.105.805.67.536 1.004 1.344 1.004 2.422 0 1.51-.765 2.53-2.297 3.062L41.927 13h-1.57L37.59 8.25h-2.383zm0-1.14h1.82c.938 0 1.625-.187 2.063-.56.438-.372.656-.93.656-1.675 0-.755-.222-1.3-.668-1.633-.445-.333-1.16-.5-2.144-.5h-1.727V7.11zM50.693 13h-6.367V1.578h6.367v1.18h-5.039v3.68h4.735v1.171h-4.735v4.204h5.04V13zM73.36.429A2.572 2.572 0 0 1 75.93 3v8.571a2.572 2.572 0 0 1-2.571 2.572H71.68V8.83h1.777l.268-2.071H71.68V5.437c0-.598.161-1 1.027-1l1.09-.008V2.58c-.188-.026-.84-.08-1.59-.08-1.58 0-2.67.964-2.67 2.732V6.76h-1.785v2.07h1.785v5.313h-4.75a2.572 2.572 0 0 1-2.571-2.572V3A2.572 2.572 0 0 1 64.788.429h8.572zm23.667 4.303c-.34.152-.697.25-1.08.304.392-.232.687-.607.83-1.045a3.733 3.733 0 0 1-1.197.455 1.86 1.86 0 0 0-1.366-.589c-1.036 0-1.875.84-1.875 1.875 0 .143.009.295.045.429a5.327 5.327 0 0 1-3.875-1.965c-.161.277-.26.608-.26.947 0 .652.304 1.223.813 1.562a2.245 2.245 0 0 1-.893-.232v.018c0 .91.688 1.67 1.545 1.84a1.583 1.583 0 0 1-.804.035 1.886 1.886 0 0 0 1.75 1.304 3.776 3.776 0 0 1-2.776.776 5.34 5.34 0 0 0 2.875.84c3.446 0 5.339-2.857 5.339-5.34 0-.08 0-.16-.009-.24.366-.26.688-.59.938-.974zM99.312 3v8.571a2.572 2.572 0 0 1-2.571 2.572h-8.572a2.572 2.572 0 0 1-2.571-2.572V3A2.572 2.572 0 0 1 88.169.429h8.572A2.572 2.572 0 0 1 99.312 3zm25.667 2.625v7.09c0 .785-.643 1.428-1.429 1.428h-13.142a1.433 1.433 0 0 1-1.43-1.429V5.625c.269.295.572.554.903.777 1.482 1.009 2.982 2.018 4.437 3.08.75.554 1.679 1.232 2.652 1.232h.018c.973 0 1.902-.678 2.652-1.232a171.013 171.013 0 0 1 4.446-3.08 5.26 5.26 0 0 0 .893-.777zm0-2.625c0 1-.741 1.902-1.527 2.446-1.393.965-2.794 1.929-4.178 2.902-.58.402-1.563 1.223-2.286 1.223h-.018c-.723 0-1.705-.821-2.286-1.223-1.384-.973-2.785-1.937-4.17-2.902-.633-.428-1.535-1.437-1.535-2.25 0-.875.473-1.625 1.429-1.625h13.142c.777 0 1.429.643 1.429 1.429zm36.701 1.906c0 1.157-.394 2.046-1.183 2.668-.79.623-1.918.934-3.387.934h-1.344V13h-1.328V1.578h2.961c2.854 0 4.281 1.11 4.281 3.328zm-5.914 2.461h1.196c1.177 0 2.028-.19 2.554-.57.526-.38.79-.99.79-1.828 0-.755-.248-1.318-.743-1.688-.495-.37-1.265-.554-2.312-.554h-1.485v4.64zm10.189.883V13h-1.328V1.578h3.132c1.401 0 2.437.268 3.106.805.67.536 1.004 1.344 1.004 2.422 0 1.51-.766 2.53-2.297 3.062L172.673 13h-1.57l-2.766-4.75h-2.382zm0-1.14h1.82c.937 0 1.625-.187 2.062-.56.438-.372.657-.93.657-1.675 0-.755-.223-1.3-.668-1.633-.446-.333-1.16-.5-2.145-.5h-1.726V7.11zm9.118 5.89V1.578h1.328V13h-1.328zm13.938 0h-1.516l-6.242-9.586h-.062a42.14 42.14 0 0 1 .125 3.094V13h-1.227V1.578h1.5l6.227 9.547h.062c-.01-.14-.034-.592-.07-1.355a23.52 23.52 0 0 1-.04-1.637V1.578h1.243V13zm7.212 0h-1.328V2.758h-3.617v-1.18h8.562v1.18h-3.617V13zm16.86 0h8v-2.286h-8V13zm0-5.714h8V3.857h-1.428a.857.857 0 0 1-.857-.857V1.571h-5.714v5.715zm10.286.571a.575.575 0 0 0-.571-.571.575.575 0 0 0-.571.571c0 .313.259.572.571.572a.575.575 0 0 0 .571-.572zm1.143 0v3.714a.294.294 0 0 1-.285.286h-2v1.429a.857.857 0 0 1-.858.857h-8.571a.857.857 0 0 1-.857-.857v-1.429h-2a.294.294 0 0 1-.286-.286V7.857c0-.937.777-1.714 1.714-1.714h.572V1.286c0-.474.384-.857.857-.857h6c.473 0 1.125.267 1.464.607l1.357 1.357c.34.34.608.99.608 1.464v2.286h.571c.938 0 1.714.777 1.714 1.714z" fill="#0066A7" fill-rule="evenodd"/></svg>