<svg width="18" height="17" viewBox="0 0 18 17" xmlns="http://www.w3.org/2000/svg"><title></title><path d="M17.444 8.694c0 .38-.156.737-.413 1.005l-.837.837a1.446 1.446 0 0 1-1.015.424 1.4 1.4 0 0 1-1.005-.424l-3.281-3.27v7.857c0 .803-.67 1.306-1.429 1.306H8.036c-.76 0-1.429-.503-1.429-1.306V7.266l-3.281 3.27a1.4 1.4 0 0 1-2.009 0L.48 9.699a1.42 1.42 0 0 1-.424-1.005c0-.38.156-.748.424-1.015L7.746.413A1.39 1.39 0 0 1 8.75 0c.38 0 .748.145 1.016.413l7.265 7.266c.257.267.413.636.413 1.015z" fill="#0063FF" fill-rule="evenodd"/></svg>