<svg width="14" height="18" viewBox="0 0 14 18" xmlns="http://www.w3.org/2000/svg"><title>Group 2 Copy</title><path d="M0 0h14v18H0V0zm3 1a2 2 0 0 0-2 2v12a2 2 0 0 0 2 2h8a2 2 0 0 0 2-2V3a2 2 0 0 0-2-2H3zm.522 2h6.956a.522.522 0 0 1 0 1.043H3.522a.522.522 0 1 1 0-1.043zm0 2h6.956a.522.522 0 0 1 0 1.043H3.522a.522.522 0 1 1 0-1.043zm0 2h6.956a.522.522 0 0 1 0 1.043H3.522a.522.522 0 1 1 0-1.043zm2 7h2.956a.522.522 0 0 1 0 1.043H5.522a.522.522 0 0 1 0-1.043z" fill="#FFF" fill-rule="evenodd"/></svg>