<svg width="18" height="18" viewBox="0 0 18 18" xmlns="http://www.w3.org/2000/svg"><title>Combined Shape</title><path d="M18 0H0v18h18V0zm-3.29 16.938a.734.734 0 0 1-.34-.086 32.052 32.052 0 0 1-8.014-6.003 31.907 31.907 0 0 1-5.26-7.2.69.69 0 0 1-.057-.53.52.52 0 0 1 .26-.313l3.378-1.713a.558.558 0 0 1 .253-.06.59.59 0 0 1 .521.315c.522.976 1.11 1.93 1.747 2.833a.578.578 0 0 1-.126.799L5.678 5.988a.317.317 0 0 0-.127.214.414.414 0 0 0 .084.309 29.743 29.743 0 0 0 5.857 5.827c.17.126.418.105.526-.044l1.014-1.386a.6.6 0 0 1 .803-.125c.91.635 1.87 1.22 2.848 1.737.28.148.396.494.256.77l-1.722 3.36a.557.557 0 0 1-.507.288z" fill="#FFF" fill-rule="evenodd"/></svg>