<svg width="33" height="24" viewBox="0 0 33 24" xmlns="http://www.w3.org/2000/svg" xmlns:xlink="http://www.w3.org/1999/xlink"><title>Group</title><defs><path id="a" d="M0 0v24h33V0H0z"/></defs><g fill="none" fill-rule="evenodd"><path fill="#000" d="M7 14h1v-1H7zm2 0h1v-1H9zm3 0h1v-1h-1zm2 0h1v-1h-1zm3 0h1v-1h-1zm2.898-8L19 5.468 20.102 4l.898.532z"/><mask id="b" fill="#fff"><use xlink:href="#a"/></mask><path fill="#000" mask="url(#b)" d="M21.898 6L21 5.468 22.102 4l.898.532z"/><path d="M28.145 22.944l4.64-9.605h-5.983V9.071H24.74V3.2h-7.197v5.87h-2.084V0H9.292v9.07H4.136v7.47H1.042v.523c0 2.479 1.265 4.656 3.16 5.88H0v1.046h24.245V24h1.01v-.011H33v-1.045h-4.855zM18.552 6.936h5.177V4.247h-5.177v2.69zm0 2.135h5.177V7.982h-5.177v1.089zm-8.25-7.47h4.146v-.556h-4.146v.556zm0 7.47h4.146V2.646h-4.146v6.425zm-5.156 2.134h20.646v-1.089H5.146v1.09zm0 1.045h20.646v1.09h-4.838l-3.61 3.2H5.146v-4.29zm21.87 10.694h-1.76v-.011h-1.01v.01H7.733a5.522 5.522 0 0 1-3.289-1.088h23.097l-.526 1.089zM3.357 20.809a5.964 5.964 0 0 1-1.283-3.223h15.644l3.61-3.202h9.823l-3.104 6.425H3.357z" fill="#000" mask="url(#b)"/><path fill="#000" mask="url(#b)" d="M23 17.315h1.51V18h.98v-.685H27V16h-4zm2.553 1.245V18h-1.106v.56l-.834-.471-.613.78L25 20l2-1.131-.614-.78zM5 19h5v-1H5z"/></g></svg>