<?xml version="1.0" encoding="UTF-8"?>
<svg width="42px" height="42px" viewBox="0 0 42 42" version="1.1" xmlns="http://www.w3.org/2000/svg" xmlns:xlink="http://www.w3.org/1999/xlink">
    <!-- Generator: Sketch 48.2 (47327) - http://www.bohemiancoding.com/sketch -->
    <title></title>
    <desc>Created with Sketch.</desc>
    <defs></defs>
    <g id="Page-1" stroke="none" stroke-width="1" fill="none" fill-rule="evenodd">
        <path d="M17.1428776,25.9999857 L24.0000286,22.5714102 L17.1428776,19.1428347 L17.1428776,25.9999857 Z M27.4286041,10.1696097 L27.4286041,24.6874841 L13.7143021,31.5446352 L13.7143021,17.0267607 L27.4286041,10.1696097 Z M35.142899,20.8571224 C35.142899,12.8213986 28.607177,6.28567648 20.5714531,6.28567648 C12.5357292,6.28567648 6.00000715,12.8213986 6.00000715,20.8571224 C6.00000715,28.8928463 12.5357292,35.4285684 20.5714531,35.4285684 C28.607177,35.4285684 35.142899,28.8928463 35.142899,20.8571224 Z M41.1429062,20.8571224 C41.1429062,32.2142788 31.9286095,41.4285755 20.5714531,41.4285755 C9.2142967,41.4285755 0,32.2142788 0,20.8571224 C0,9.49996603 9.2142967,0.285669327 20.5714531,0.285669327 C31.9286095,0.285669327 41.1429062,9.49996603 41.1429062,20.8571224 Z" id="" fill="#0067A5"></path>
    </g>
</svg>