<svg width="76" height="76" viewBox="0 0 76 76" xmlns="http://www.w3.org/2000/svg"><title>Group</title><g fill="none" fill-rule="evenodd"><path d="M74.165 38.353c0 20.228-16.399 36.627-36.627 36.627S.911 58.581.911 38.353 17.31 1.726 37.538 1.726s36.627 16.399 36.627 36.627z" stroke="#1B5E92" stroke-width="1.746"/><path d="M41.928 55.858l.005 2.627h-4.877v-9.97h-1.627v-1.627h3.252v9.971h1.625l-.03-14.196h-6.58v14.196h2.385v1.626h-4.01v-2.632c-1.821.533-2.768 1.282-2.768 1.823 0 .367.515.995 1.97 1.553 1.513.583 3.545.904 5.719.904 2.174 0 4.206-.321 5.72-.904 1.454-.558 1.97-1.186 1.97-1.553 0-.541-.942-1.286-2.754-1.818m-8.232-14.82h6.576v-.65h-6.576z" fill="#1B5E92"/><path d="M37.538 4.569c-18.658 0-33.784 15.126-33.784 33.785 0 18.656 15.126 33.781 33.784 33.781S71.322 57.01 71.322 38.354c0-18.659-15.126-33.785-33.784-33.785zm-3.837 12.196a3.708 3.708 0 0 1 3.703-3.703 3.707 3.707 0 0 1 3.703 3.703v4.129a3.707 3.707 0 0 1-3.703 3.703 3.708 3.708 0 0 1-3.703-3.703v-4.129zm-5.779 13.051a4.372 4.372 0 0 1 4.367-4.367h9.406a4.373 4.373 0 0 1 4.368 4.367v13.776h-3.29v-1.627h1.665V29.816a2.745 2.745 0 0 0-2.743-2.74h-9.406a2.745 2.745 0 0 0-2.743 2.74v12.149h1.666v1.627h-3.29V29.816zm19.861 28.669h-1.635c-.367.897-1.346 1.683-2.852 2.262-1.524.586-3.488.935-5.59 1.001v1.614h-1.627v-1.621c-2.027-.08-3.913-.425-5.391-.994-1.506-.579-2.485-1.365-2.852-2.262h-1.51v-1.626h1.513c.466-1.159 1.946-2.106 4.231-2.692V32.042h-.867v-1.625h2.493v8.345h6.572l-.017-8.345h2.547v1.625h-.918l.045 22.129c2.278.584 3.754 1.531 4.221 2.688h1.637v1.626z" fill="#1B5E92"/><path d="M37.405 22.972a2.081 2.081 0 0 0 2.078-2.078v-4.129a2.08 2.08 0 0 0-2.078-2.077 2.08 2.08 0 0 0-2.079 2.077v4.129c0 1.145.933 2.078 2.079 2.078" fill="#1B5E92"/></g></svg>