<?xml version="1.0" encoding="UTF-8"?>
<svg width="231px" height="65px" viewBox="0 0 231 65" version="1.1" xmlns="http://www.w3.org/2000/svg" xmlns:xlink="http://www.w3.org/1999/xlink">
    <!-- Generator: Sketch 48.2 (47327) - http://www.bohemiancoding.com/sketch -->
    <title>Logo_new_2017</title>
    <desc>Created with Sketch.</desc>
    <defs>
        <polygon id="path-1" points="2.48190859e-21 0.0441472769 2.48190859e-21 65 37.9649007 65 75.9298013 65 75.9298013 0.0441472769"></polygon>
    </defs>
    <g id="Header_LS" stroke="none" stroke-width="1" fill="none" fill-rule="evenodd" transform="translate(-221.000000, -16.000000)">
        <g id="Logo_new_2017" transform="translate(221.000000, 16.000000)">
            <path d="M52.4662768,18.35052 C52.420415,18.8705852 51.2022802,19.386082 51.0686098,19.8893356 C50.7736772,20.9936062 52.1786151,23.225903 52.0443854,24.3594113 C51.8775303,25.822209 50.6815807,28.7543828 49.531493,29.6680603 C48.5264479,30.4720964 44.5116739,30.7836605 44.5116739,30.7836605 C44.5116739,30.7836605 47.4466443,29.5925905 48.140351,28.8300353 C48.9248491,27.9620416 49.8441364,25.6718177 49.9537573,24.4979248 C50.0868685,23.0700296 48.1977714,20.195783 48.7699257,18.8766155 C48.9196291,18.5244842 49.9298942,18.4265379 50.0922749,18.0731275 C50.7391877,16.6618612 48.295088,12.5038977 48.555531,12.0644189 C49.5143414,10.4799194 52.6348097,16.5114699 52.4662768,18.35052 Z M24.2066309,12.2029324 C23.7908916,12.4689952 22.7448318,12.5386175 22.2537747,12.4863551 C21.7918008,12.4406712 20.5902583,11.8847899 20.7172172,11.4400117 C20.8270246,11.0580945 21.7918008,11.3819018 22.3229403,11.3877493 C22.3229403,11.3760542 22.3229403,11.3702067 22.3229403,11.3649074 L22.3287197,11.3877493 C22.4040375,11.3877493 22.4728302,11.3819018 22.5309964,11.3649074 C22.7276803,11.307163 23.5886148,11.1160216 23.7148281,10.9599655 C24.0957049,10.4916144 24.0436909,8.54255761 23.9292228,8.01646212 C23.8716158,7.72152702 23.5069584,7.21827346 20.5324649,7.93551029 L20.4398091,7.91193741 C20.2433117,7.55341036 21.6935521,6.89391795 21.6935521,6.89391795 C21.6935521,6.89391795 22.2189123,6.587836 23.2992752,6.587836 C23.7726214,6.59386627 24.4722939,7.06788215 24.6507076,7.65775233 C24.9281157,8.54255761 25.4831183,11.3994444 24.2066309,12.2029324 Z M13.09185,10.0115683 C11.0465245,11.7926912 10.9259042,9.48492457 10.9259042,9.48492457 C10.9259042,9.48492457 12.8547108,8.98788402 13.4497959,9.80324981 C13.5890593,9.9823306 13.09185,10.0115683 13.09185,10.0115683 Z M73.2235995,35.9537959 C73.9616766,33.0852141 74.2508298,27.0366691 73.7489598,24.1167386 C72.9348192,19.3917468 68.2777933,10.6591829 65.2688102,6.92900317 C64.1120109,5.50037705 61.2475112,2.96199826 59.5146427,2.36025027 C57.780842,1.76471528 53.9508204,1.98418061 52.1838351,2.46422676 C50.7684572,2.85199149 48.3994889,4.76048102 47.0596152,5.36186355 C45.3034429,6.14835713 41.4098486,6.78427666 39.4858891,6.75540445 C36.7595342,6.7206847 31.4613749,5.04372104 28.7404264,4.93974455 C28.1171903,4.91653714 26.25699,5.17090495 26.25699,5.17090495 C26.25699,5.17090495 21.4614465,5.25203951 16.1010195,6.42574961 C15.6209618,6.69199523 14.4665861,7.32224996 13.8304864,7.61755052 C12.7329719,8.11989041 10.1919285,8.02760898 9.06570382,8.48481319 C8.70682572,8.62917424 8.10018192,9.1437574 7.77038693,9.34622833 C6.36172049,10.2138565 2,12.5793675 2,12.5793675 C2,12.5793675 2.68718164,12.677131 2.86093457,12.8161927 C3.09192156,12.9956389 3.42171655,13.5390943 3.43830884,13.8281819 C3.46757838,14.2157639 3.12678401,14.9847148 2.86093457,15.2741679 C2.80892055,15.3319123 2.57178136,15.4190771 2.57178136,15.4190771 C2.57178136,15.4190771 4.02202173,16.627507 4.59361666,16.8583019 C5.03321903,17.0437784 5.99762235,17.1130352 6.47096858,17.1539679 C6.9047916,17.1824747 7.77038693,17.1539679 8.20420996,17.1539679 C8.49336317,17.1539679 9.28942004,16.8698142 9.36007707,17.1539679 C9.45273287,17.5464838 8.27393485,17.6912103 7.9159889,17.8702911 C7.62683569,18.0155658 6.86936987,18.148049 6.76012178,18.4490144 C6.69058333,18.6401557 6.93406114,19.0617265 7.08954391,19.1887277 C7.47713226,19.5013881 9.03587499,19.62309 9.03587499,19.62309 L10.9424964,18.882463 L15.9735013,17.7493202 L15.9735013,17.7432899 L15.9684677,17.72593 C15.9684677,17.72593 18.8564576,15.389474 19.4287982,16.1531256 C19.7345437,16.5693971 17.8463789,17.2517314 18.0646886,17.72593 C18.2041384,18.0323775 19.0937832,17.6678201 19.4287982,17.72593 C20.3536784,17.8823516 22.9871911,18.9813229 22.9871911,18.9813229 L23.5192628,19.2006055 C24.3796381,19.8893356 25.9100434,20.6292316 28.3246871,20.3109064 C28.3246871,20.3109064 31.2892998,19.940867 31.8083215,19.1887277 C32.2473645,18.5590212 31.3922093,16.8352772 31.669431,16.1184059 C31.7615275,15.88688 32.2885656,15.6500548 32.3685442,15.4190771 C32.6058698,14.7595847 31.4162588,12.8105279 32.0924411,12.6257823 C33.0557258,12.3599022 33.4490935,15.5577734 33.4490935,16.3957983 C33.4490935,17.2345543 32.7098978,16.6560137 32.5081804,16.8181001 C31.9817015,17.2405845 33.1545338,18.7956636 33.0678438,19.4723332 C33.0505058,19.62309 32.8830915,19.9061472 32.7900628,20.0283973 C32.4207446,20.4960174 31.1675609,21.005484 30.9766564,21.565751 C30.7915313,22.0812479 31.1960848,23.2366844 31.5310998,23.6593516 C31.8495225,24.064659 32.8362975,24.5785112 33.3456247,24.6428341 C34.8529127,24.8222803 37.8283384,23.4921486 39.0701498,22.6130082 C40.080415,21.8955886 41.3572753,20.8024649 40.9536539,18.0033225 C40.8432873,17.2690913 39.4513996,16.0142466 39.6948774,15.3145524 C39.8030069,15.0024402 40.7508179,15.0254649 40.8841155,14.718652 C41.2299435,13.9210115 39.1965495,11.8738257 39.9081535,11.3649074 C40.7856804,10.739952 42.5245146,14.1465071 41.9987815,15.1411364 C41.8781612,15.3609672 41.3281922,15.5924931 41.2648059,15.8410134 C41.1087639,16.4422132 41.9752913,17.5932641 41.9987815,18.2123719 C42.0450162,19.4666684 41.6059731,22.0812479 40.8841155,23.1040185 C40.0979394,24.2207151 37.3139775,25.3770653 36.6961479,26.5971902 C36.0078477,27.9508948 39.255275,30.4147175 38.2321462,32.4611723 C37.8221862,33.2765381 35.5406537,31.0561191 34.7432918,31.4842684 C33.9343712,31.917717 33.7893286,34.0749095 33.6275072,34.9770747 C33.2753406,36.919553 33.3404047,40.916892 33.587984,42.8706999 C33.7326538,43.9934268 34.6677876,47.0527845 34.8299818,47.572667 L34.8299818,47.5843621 C34.8365069,47.5900269 34.8365069,47.5960572 34.8365069,47.5960572 C34.8365069,47.6013565 34.8365069,47.6073868 34.8409812,47.6130516 L34.8467605,47.6369899 C35.1193215,48.4803142 38.1223388,49.5856813 37.637061,50.2729495 C37.3253498,50.7186413 35.2337896,49.226606 35.6499018,51.1117054 C35.6853235,51.2737918 35.7992323,51.5864522 35.8579578,51.7419601 C36.1650083,52.5924111 36.8691551,54.3386315 37.533033,54.9575567 C37.9209942,55.3164492 38.9592239,55.7153608 39.4858891,55.7959471 C39.930898,55.8597218 40.6186389,55.7902823 41.2882961,55.6510379 C41.392697,55.293059 41.9930022,54.7607505 42.3103064,54.8190432 C42.4611284,54.8424333 42.6171704,55.0034233 42.7493494,55.2294671 C42.8597161,55.1830523 42.9574055,55.1423023 43.0439091,55.0962529 C43.0905167,55.073411 43.1488693,55.0383258 43.2070355,54.9924591 C43.0552814,54.7262135 42.9465926,54.4661809 42.9413725,54.2989779 C42.9292546,53.9574453 43.4546148,53.2283307 43.7948499,53.2455078 C43.9697214,53.2517208 44.1652867,53.5115707 44.3265488,53.7951762 C44.4883702,53.5870404 44.6505644,53.3673924 44.8010136,53.1530436 C44.6619367,52.9218832 44.5523157,52.6846926 44.5523157,52.5408797 C44.5461635,52.1702921 45.0942682,51.2392548 45.4702979,51.3951281 C45.5280913,51.418701 45.5812239,51.4649331 45.6332379,51.5343726 C45.6384579,51.5107997 45.6434916,51.4874096 45.6434916,51.4649331 C45.7134029,49.5856813 41.3865448,47.0409067 42.4486376,45.490396 C42.6223905,45.2422412 43.4723257,45.6872022 43.6747889,45.4556763 C44.8763314,44.0857083 42.4143344,39.9273793 42.9751164,38.1924885 C43.0905167,37.8394435 43.9572306,37.4456485 43.9520105,37.0765228 C43.9337404,35.8267947 40.6747544,33.4563498 40.4745284,33.3050449 C40.6988039,33.438259 44.6969855,35.7524214 49.1619883,35.340901 C52.1370411,35.0697216 55.3199636,33.5890158 57.7351666,29.454077 C57.7470981,29.4365344 57.7586568,29.4136924 57.770029,29.3906678 C57.770029,29.3906678 57.7586568,29.4136924 57.7351666,29.454077 C57.4236418,30.0616725 54.8986314,35.0116117 54.8346859,37.6313078 C54.7998234,39.2393801 54.8579896,42.4776359 54.5580235,44.0566533 C54.2972076,45.4384991 53.4649833,48.1625372 52.7434985,49.365485 C52.4032634,49.9436601 51.2183132,50.7246716 50.9297193,51.3262369 C50.7266968,51.7368435 50.8432157,52.7254426 50.6524976,53.1415313 C49.9709089,54.622237 47.4289334,56.8951011 46.0487908,57.7508515 C45.667541,57.9821946 44.7316615,58.0571162 44.3733427,58.3065501 C44.3265488,58.3350569 44.2745347,58.3754414 44.2228936,58.4154605 C43.8177808,58.7337857 43.1997648,59.3181738 43.2517788,59.7055731 C43.2872005,59.9493422 43.4818336,60.1929287 43.7517845,60.4209826 C43.8067814,60.3407617 43.8619648,60.2766215 43.9182667,60.2429982 C44.2650268,60.0339488 45.3246959,60.2694948 45.4947203,60.6386205 C45.5728345,60.8083818 45.5100075,61.0718864 45.3824893,61.3615222 C45.5254812,61.423835 45.657101,61.4793866 45.766349,61.521233 C45.8183631,61.543344 45.8808172,61.5625312 45.9397291,61.5822667 C46.0920426,61.2780121 46.2585247,61.0139593 46.4134482,60.9006632 C46.7339217,60.6691374 47.7811,60.6969132 47.9917661,61.0324155 C48.1019463,61.2107654 47.9729367,61.5839113 47.8014209,61.9373217 C48.1010142,61.9663767 48.409929,61.9872085 48.721081,62 C48.8603443,61.6941008 49.0212336,61.4013585 49.173547,61.2959201 C49.5262729,61.0526992 50.7798294,60.9649861 50.8812475,61.4274897 C50.9120084,61.5656377 50.8391142,61.7629921 50.7225954,61.9740516 C51.228194,61.9373217 51.6855073,61.8786636 52.0443854,61.7991737 C52.929183,61.6083978 54.5921402,60.740587 55.2575095,60.1276921 C56.0774294,59.3700707 57.216145,57.3866596 57.6316978,56.3516458 C57.694152,56.1895594 57.718015,55.8255503 57.770029,55.6510379 C57.8734978,55.293059 58.1225685,54.5701574 58.3239131,54.257497 C58.5783903,53.8706459 59.0526687,53.3673924 59.5314214,52.8467789 C60.149251,52.1819872 60.7797579,51.4711461 60.9753231,50.9037524 C61.125213,50.4759686 60.8884467,49.5330534 60.9753231,49.0873616 C61.3515392,47.232048 63.5581268,43.9638237 63.9112256,42.101749 C64.0318459,41.448835 63.8530594,40.025691 64.1880744,39.4475159 C64.4824477,38.9329327 65.8514045,38.5857353 66.106441,38.0545232 C66.672443,36.8506617 64.5463932,35.9146905 66.0014808,32.7447778 C66.2729231,32.1547249 67.7809568,31.6861911 67.9541505,31.0670832 C68.2604553,29.9924158 66.8337051,27.5684294 67.4340103,26.6322754 C67.6773017,26.2499928 68.9019615,26.4530119 69.1443207,26.0705465 C69.9234125,24.8162501 66.9604776,20.7392384 68.3409931,20.2008996 C70.3281524,19.4319486 72.4426435,24.5041378 71.8647099,27.9910966 C71.6691447,29.1653549 70.103504,31.0906561 69.6301578,32.1839626 C69.0630372,33.4961862 68.942044,36.4575977 68.3749234,37.770004 C67.8042606,39.089537 65.8452523,41.262993 65.16385,42.5244162 C64.2628329,44.18402 63.0853399,47.8098577 62.6507711,49.6489077 C62.5239986,50.1985761 62.5989436,51.3660732 62.3741088,51.8812046 C62.1779842,52.3380433 61.9922998,52.7490154 61.8075474,53.1530436 C63.4026441,53.4485269 66.1802673,53.841591 67.1457892,53.2455078 C68.3176893,52.5348494 68.8784713,49.4694615 69.0693758,48.1106403 C69.2082663,47.1801512 68.8560997,45.2594184 69.0693758,44.3402588 C69.6062947,42.0609989 72.6393273,38.2213607 73.2235995,35.9537959 Z" id="Fill-1" fill="#FFFFFE"></path>
            <path d="M57,29.08675 C57.0315,29.0315 57.04675,29 57.04675,29 C57.0315,29.0315 57.016,29.06275 57,29.08675" id="Fill-2" fill="#0F6BA7"></path>
            <path d="M48.5715256,12.2488855 C48.2770984,12.6656353 51.0401199,16.608556 50.3087939,17.946834 C50.1252247,18.2819667 48.9831336,18.3748473 48.8138959,18.7087669 C48.1670833,19.9597094 50.3026819,22.6853049 50.1522016,24.0393518 C50.0282766,25.1525329 48.9890348,27.3243105 48.1021702,28.1474129 C47.3179442,28.8705301 44,30 44,30 C44,30 48.5386476,29.7045495 49.6748374,28.9420967 C50.9749961,28.0756731 52.3270009,25.2951463 52.5156283,23.908002 C52.6673732,22.8331168 51.07911,20.7162706 51.4125272,19.6691109 C51.5636398,19.1918848 52.9407247,18.7030486 52.9925709,18.2098802 C53.183095,16.4659427 49.6554478,10.7463336 48.5715256,12.2488855" id="Fill-3" fill="#0F6BA7"></path>
            <g id="Group-7">
                <mask id="mask-2" fill="white">
                    <use xlink:href="#path-1"></use>
                </mask>
                <g id="Clip-5"></g>
                <path d="M23.6444241,6.85114525 C22.5831711,6.85114525 22.0671036,7.15526536 22.0671036,7.15526536 C22.0671036,7.15526536 20.6425157,7.81053073 20.8355373,8.16675978 L20.9265542,8.19018156 C23.8484337,7.4775419 24.206641,7.97756983 24.2632289,8.27061453 C24.3756723,8.79333799 24.4267663,10.7299022 24.0526265,11.1952514 C23.9286458,11.3503073 23.0829398,11.5402235 22.8897349,11.5975978 C22.8325976,11.6144832 22.7650217,11.6202933 22.6910361,11.6202933 L22.685359,11.5975978 C22.685359,11.6028631 22.685359,11.6086732 22.685359,11.6202933 C22.1636145,11.6144832 21.2159036,11.2927514 21.1080386,11.6722207 C20.9833253,12.114148 22.1636145,12.6664665 22.6174169,12.7118575 C23.099788,12.7637849 24.1273446,12.6946089 24.5357301,12.4302514 C25.7896386,11.6319134 25.244453,8.79333799 24.9719518,7.91420391 C24.796694,7.32811453 24.1093976,6.85713687 23.6444241,6.85114525" id="Fill-4" fill="#0F6BA7" mask="url(#mask-2)"></path>
                <path d="M72.6856675,36.0288827 C72.1117301,38.2819134 69.132347,42.0969413 68.6049253,44.3615922 C68.3954217,45.2748603 68.741359,47.1832821 68.6049253,48.1078073 C68.4173976,49.457919 67.8665349,52.5036592 66.7153639,53.2097626 C65.7669205,53.8020251 63.0384289,53.4114804 61.471547,53.1178911 C61.6530313,52.7164525 61.8354313,52.3081145 62.0280867,51.8542039 C62.2489446,51.3423743 62.1753253,50.1823603 62.2998554,49.6362151 C62.7267373,47.8089525 63.8834024,44.2063547 64.7684819,42.5573883 C65.4378313,41.3040503 67.362188,39.1445251 67.9227566,37.8334497 C68.4798458,36.5294553 68.5986988,33.5870251 69.155788,32.2832123 C69.6207614,31.1969134 71.1587084,29.2839525 71.3508145,28.1172207 C71.9185253,24.6526117 69.8414361,19.612933 67.8894265,20.3769553 C66.5333301,20.9118436 69.4438554,24.9627235 68.6785446,26.2089804 C68.4404723,26.5889944 67.2374747,26.3872765 66.9984867,26.7671089 C66.4088,27.6972626 67.8103133,30.1057123 67.5094265,31.1734916 C67.3392964,31.7886313 65.8579373,32.254162 65.5912964,32.840433 C64.161947,35.9900279 66.2503904,36.92 65.6944,38.1161453 C65.4438747,38.6439525 64.0991325,38.9889246 63.8099663,39.5002095 C63.4808771,40.0746788 63.6565012,41.4887011 63.5380145,42.1374302 C63.1911614,43.9875698 61.0236048,47.2348464 60.6540434,49.0782682 C60.5687036,49.5211034 60.8012819,50.4579749 60.6540434,50.8830168 C60.4619373,51.4467737 59.8425831,52.1530587 59.2356819,52.8135894 C58.7653976,53.3308659 58.2995084,53.8308939 58.0495325,54.2152654 C57.8517494,54.5259218 57.6070843,55.2441899 57.5054458,55.5998743 C57.4543518,55.7732682 57.4309108,56.1349441 57.3695614,56.2959916 C56.961359,57.3243715 55.8427855,59.2950698 55.0373687,60.0478352 C54.3837687,60.6568017 52.7502265,61.5190503 51.8810795,61.7086034 C51.5285494,61.7875838 51.0793253,61.8458659 50.5826699,61.8823603 C50.6971277,61.6726536 50.7687325,61.4765642 50.7385157,61.3393017 C50.6388916,60.8797626 49.4075084,60.9669134 49.0610217,61.2085754 C48.9114024,61.313338 48.753359,61.6042039 48.616559,61.9081425 C48.3109108,61.895433 48.0074602,61.8747346 47.7131663,61.8458659 C47.8816482,61.4947207 48.0083759,61.1239665 47.9001446,60.9467598 C47.6932048,60.6134078 46.6645494,60.5858101 46.3497446,60.815852 C46.1975614,60.9284218 46.0340241,61.1907821 45.8844048,61.4930866 C45.8265349,61.4734777 45.7651855,61.4544134 45.7140916,61.4324441 C45.6067759,61.3908659 45.4774843,61.3356704 45.3370217,61.273757 C45.4622843,60.9859777 45.524,60.724162 45.4472675,60.5554888 C45.2802506,60.1887291 44.2393253,59.9546927 43.8986988,60.1624022 C43.8433928,60.1958101 43.7891855,60.2595391 43.7351614,60.3392458 C43.4699855,60.1126536 43.2787952,59.8706285 43.244,59.6284218 C43.192906,59.2435056 43.7999904,58.6628631 44.1979373,58.3465782 C44.2486651,58.3068156 44.299759,58.2666899 44.3457253,58.2383659 C44.697706,57.9905307 45.6170313,57.9160894 45.9915373,57.6862291 C47.3472675,56.8359637 49.8442795,54.5776676 50.513812,53.1064525 C50.7011566,52.6930307 50.5866988,51.7107682 50.7861301,51.3027933 C51.0696193,50.7050838 52.2336096,49.9290782 52.5678265,49.3546089 C53.2765494,48.1593715 54.094053,45.4527933 54.3502554,44.0798045 C54.6449157,42.5109078 54.5877783,39.2934078 54.6220241,37.6956425 C54.6848386,35.0927374 57.1651855,30.1745251 57.4712,29.570824 C55.0987181,33.6792598 51.9720964,35.1504749 49.0496675,35.4199162 C44.6636434,35.8287989 40.7361831,33.5294693 40.5158747,33.3971089 C40.712559,33.5474441 43.9138988,35.9026955 43.9318458,37.1444134 C43.9369735,37.5111732 43.0855904,37.9024441 42.9722313,38.2532263 C42.4213687,39.9769972 44.8398169,44.1086732 43.6595277,45.4698603 C43.4606458,45.6999022 42.6257446,45.2577933 42.4550651,45.5043575 C41.411759,47.0449302 45.6620819,49.5733939 45.5934072,51.4406006 C45.5934072,51.462933 45.5884627,51.4861732 45.5833349,51.509595 C45.532241,51.4406006 45.4800482,51.3946648 45.4232771,51.371243 C45.0538988,51.2163687 44.5154892,52.1414385 44.5215325,52.5096508 C44.5215325,52.6525419 44.6292145,52.8882123 44.7658313,53.1178911 C44.6180434,53.3308659 44.4587181,53.5491061 44.299759,53.7559078 C44.1413494,53.4741201 43.9492434,53.2159358 43.7774651,53.2097626 C43.4432482,53.1926955 42.9271807,53.9171369 42.9390843,54.2564804 C42.944212,54.4226117 43.0509783,54.6809777 43.2000482,54.9455168 C43.1429108,54.9910894 43.0855904,55.0259497 43.0398072,55.0486453 C42.9548337,55.0943994 42.8588723,55.1348883 42.7504578,55.1810056 C42.6206169,54.9564106 42.4673349,54.7964525 42.3191807,54.7732123 C42.0074892,54.7152933 41.4178024,55.2441899 41.3152482,55.5998743 C40.6574361,55.7382263 39.9818602,55.8072207 39.5447229,55.7438547 C39.0273735,55.6637849 38.0075084,55.2674302 37.6264096,54.910838 C36.9742747,54.2958799 36.2825831,52.560852 35.9809639,51.715852 C35.9232771,51.5613408 35.8113831,51.2506844 35.776588,51.0896369 C35.3678361,49.2166201 37.4224,50.6990922 37.7285976,50.256257 C38.2052916,49.5733939 35.2553928,48.4751117 34.987653,47.6371927 L34.9819759,47.6134078 C34.9775807,47.6077793 34.9775807,47.6017877 34.9775807,47.5965223 C34.9775807,47.5965223 34.9775807,47.5905307 34.9711711,47.5849022 L34.9711711,47.5732821 C34.8118458,47.0567318 33.893253,44.0169832 33.7511422,42.9014525 C33.5079422,40.9601676 33.4440289,36.9884497 33.7899663,35.0584218 C33.9489253,34.1620391 34.0914024,32.0186732 34.8860145,31.5880028 C35.6692723,31.1625978 37.9104482,33.3687849 38.3131566,32.5586453 C39.318188,30.5253073 36.1282024,28.0772765 36.8043277,26.7322486 C37.4112289,25.5199441 40.145947,24.3710056 40.9182169,23.2614665 C41.627306,22.2452514 42.0585831,19.6474302 42.0131663,18.4011732 C41.9900916,17.7860335 41.1388916,16.6423603 41.2921735,16.045014 C41.3544386,15.7980866 41.8946795,15.5680447 42.0131663,15.3496229 C42.5296,14.3613687 40.8215229,10.976648 39.9595181,11.5975978 C39.2605012,12.1032542 41.2579277,14.1373184 40.9182169,14.9298464 C40.7872771,15.2346927 39.8562313,15.2118156 39.7500145,15.5219274 C39.5108434,16.2171369 40.8781108,17.4639385 40.9865253,18.1934637 C41.3830072,20.9746648 40.1287325,22.0607821 39.1363373,22.7736034 C37.9164916,23.6471089 34.9936964,24.9687151 33.5130699,24.790419 C33.0127518,24.7265084 32.0434313,24.2159497 31.730641,23.8132402 C31.4015518,23.3932821 31.0041542,22.2452514 31.1860048,21.7330587 C31.3735325,21.1763827 32.6045494,20.6701816 32.9673349,20.2055587 C33.0587181,20.0840922 33.2231711,19.8028492 33.2402024,19.6530587 C33.325359,18.9807263 32.1732723,17.4356145 32.6904386,17.015838 C32.888588,16.8547905 33.6147084,17.4296229 33.6147084,16.596243 C33.6147084,15.7635894 33.2282988,12.5862151 32.282053,12.8503911 C31.6178313,13.0339525 32.7864,14.9705168 32.5532723,15.6257821 C32.4747084,15.8552793 31.9569928,16.0905866 31.8665253,16.3206285 C31.5942072,17.032905 32.4342361,18.7456006 32.002959,19.3712709 C31.4931181,20.1185894 28.5809446,20.486257 28.5809446,20.486257 C26.209012,20.8025419 24.7056771,20.0673883 23.8605205,19.3830726 L23.3378602,19.1651955 C23.3378602,19.1651955 20.7509301,18.0732682 19.8424096,17.9178492 C19.5133205,17.8601117 18.639412,18.2223324 18.5024289,17.9178492 C18.2879807,17.4466899 20.142747,16.7687291 19.8424096,16.3551257 C19.2801928,15.5963687 16.4432867,17.9178492 16.4432867,17.9178492 L16.4482313,17.9350978 L16.4482313,17.9410894 L11.5062169,19.0669693 L9.63332048,19.8028492 C9.63332048,19.8028492 8.1021494,19.6819274 7.72141687,19.3712709 C7.56868434,19.2450838 7.32951325,18.8262151 7.39782169,18.6362989 C7.50513735,18.3372626 8.24920482,18.2056285 8.53324337,18.0612849 C8.88485783,17.883352 10.0428048,17.7395531 9.95178795,17.3495531 C9.88238072,17.0672207 9.10040482,17.3495531 8.81636627,17.3495531 C8.39021687,17.3495531 7.53993253,17.3778771 7.11378313,17.3495531 C6.64880964,17.3088827 5.70146506,17.2400698 5.26963855,17.0557821 C4.70815422,16.8264665 3.28356627,15.6257821 3.28356627,15.6257821 C3.28356627,15.6257821 3.51651084,15.539176 3.56760482,15.4818017 C3.82875181,15.1942039 4.16351807,14.4301816 4.13476627,14.0450838 C4.11846747,13.7578492 3.79450602,13.2178771 3.56760482,13.039581 C3.3969253,12.9014106 2.7218988,12.8042737 2.7218988,12.8042737 C2.7218988,12.8042737 7.00646747,10.4539246 8.39021687,9.59185754 C8.71417831,9.39068436 9.31009157,8.87939944 9.66262169,8.73596369 C10.7689253,8.28168994 13.2650217,8.37337989 14.3431229,7.87425978 C14.9679711,7.58085196 16.1019277,6.95463687 16.573494,6.69009777 C21.8391036,5.52391061 26.5498217,5.44329609 26.5498217,5.44329609 C26.5498217,5.44329609 28.3771181,5.19055866 28.9893301,5.21361732 C31.6621494,5.31692737 36.8665928,6.98314246 39.5447229,7.01763966 C41.4346506,7.04632682 45.2593735,6.41448324 46.9844819,5.63303073 C48.3006554,5.03550279 50.6277205,3.13924581 52.0180627,2.75396648 C53.7537928,2.27699721 57.5160675,2.05893855 59.2192,2.65065642 C60.9214169,3.24854749 63.7352482,5.77065642 64.8715855,7.1901257 C67.8273446,10.8963966 72.4019952,19.5729888 73.2017349,24.2676955 C73.6947277,27.1689106 73.4106892,33.1786872 72.6856675,36.0288827 Z M43.3921542,56.7388268 C43.3921542,56.7388268 43.3527807,56.6059218 43.2839229,56.4049302 C43.5168675,56.3072486 43.7274699,56.1977654 43.9021783,56.0833799 C43.9421012,56.0599581 43.9772627,56.0314525 44.0171855,55.9971369 L45.8552867,55.8705866 C45.5833349,55.767095 45.167441,55.238743 44.9017157,54.8643575 C45.088694,54.5544274 45.2818988,54.2098184 45.4586217,53.8535894 L47.2853687,54.1582542 L46.1045301,52.934148 C46.1045301,52.934148 46.0768771,52.7903492 46.0191904,52.5897207 C46.2352867,52.0497486 46.377947,51.5669693 46.4059663,51.2506844 C46.5358072,49.877514 43.8521831,48.1768017 44.3457253,47.1366201 C44.4193446,46.9817458 44.9185639,47.2687989 45.0273446,47.1366201 C45.6287518,46.4009218 43.9138988,40.2184777 44.4816096,39.5002095 C44.6123663,39.3329888 45.1172627,37.2822207 45.7140916,37.0006145 C46.9506024,36.4321369 48.0001349,36.1443575 49.1060723,36.0755447 C49.958188,36.0288827 50.8483952,36.1160335 51.8810795,36.3110335 C53.3225157,36.5810196 53.0276723,40.654595 52.9822554,42.1374302 C52.9311614,43.6774581 52.1544964,46.7344553 51.4732434,48.1078073 C51.154959,48.7454609 50.0825349,49.7335335 49.6909976,50.331243 C49.0844627,51.2396089 48.2383904,52.8540782 47.3584386,54.2098184 C46.8249735,55.0375698 46.2808867,55.7732682 45.7692145,56.2039385 C45.3273157,56.5775978 44.0789012,56.7388268 43.6595277,57.1293715 C43.6533012,57.135 43.6533012,57.135 43.6481735,57.135 C43.4892145,56.9392737 43.3921542,56.7388268 43.3921542,56.7388268 Z M75.6022361,24.0260335 C74.8133012,19.1356006 70.4199518,9.95934358 67.5094265,5.97782123 C66.1240289,4.08192737 62.1701976,1.21412011 59.9733398,0.427402235 C58.0158361,-0.274162011 53.6578313,0.0880586592 51.677253,0.708282123 C50.3834217,1.11081006 48.2219084,2.93226257 46.9506024,3.40923184 C45.3104675,4.02418994 41.842853,4.77659218 40.0943036,4.7998324 C37.2410988,4.83432961 31.577359,3.75965084 28.7230554,3.80576816 C25.5902072,3.85769553 19.8424096,4.2371648 16.2052145,5.36885475 C16.1764627,5.3802933 16.147894,5.39736034 16.1361735,5.42604749 C15.461147,5.6849581 14.5537253,6.54085196 14.0594506,6.72477654 C13.0044241,7.11568436 10.6324916,7.27037709 9.6283759,7.7878352 C9.24764337,7.98301676 8.73670361,8.4774162 8.39021687,8.73596369 C7.77306024,9.18406425 6.37099759,9.81608939 5.69542169,10.1666899 C4.38474217,10.8562709 0.451604819,12.8963268 0.451604819,12.8963268 L0.0265542169,13.614595 C0.0265542169,13.614595 -0.399045783,14.7631704 2.15437108,16.487486 C2.15437108,16.487486 3.12460723,17.4011173 4.27687711,17.7800419 C4.66218795,17.9006006 5.56466506,17.9067737 5.8373494,18.2056285 C5.96206265,18.3423464 5.9049253,18.7568575 5.97946024,18.9235335 C6.09794699,19.2107682 6.45011084,19.7396648 6.68873253,19.9290363 C6.94933012,20.1418296 7.60238072,20.3769553 7.93146988,20.4463128 C8.39021687,20.5439944 9.33866024,20.5380028 9.80857831,20.5035056 C11.3580627,20.3891201 15.1208867,19.607486 17.0390169,19.1995112 C17.470294,19.1873464 18.9573301,19.1590223 19.4962892,19.2679609 C20.3533494,19.446257 21.9075952,20.3201257 22.7538506,20.5552514 C22.8611663,20.5841201 23.0880675,20.5957402 23.1962988,20.6307821 C25.7442217,21.4231285 26.8226892,22.4003073 28.0311807,22.985852 C28.4053205,23.164148 29.1993831,23.4397626 29.540559,23.675433 C29.7388916,23.8186872 30.0403277,24.2099581 30.2212627,24.3710056 C30.647412,24.743757 31.5718651,25.3932123 32.002959,25.7610615 C34.8404145,28.1457263 32.8257735,32.3518436 32.4175711,34.5071927 C32.0097349,36.6498324 32.3040289,41.0807263 32.5532723,43.2464246 C32.8155181,45.5103492 34.0117398,49.9062011 34.4721349,52.1358101 C34.6876819,53.1585615 36.2926554,55.7843436 37.2002602,56.2898184 C38.3069301,56.9044134 38.6534169,56.8877095 39.5608386,56.9971927 C40.1807422,57.0710894 41.0718651,56.9971927 41.9221494,56.8127235 L42.7964241,57.8184078 L43.114159,57.7377933 C42.5296,58.4967318 41.9042024,59.5939246 42.0131663,60.2546369 C42.0917301,60.7377793 42.5889349,61.3095251 43.1689157,61.8088268 L42.8652819,63.0389246 L44.1556337,64.2152793 C43.7694072,63.8225559 44.2843759,62.9080168 44.2843759,62.9080168 C44.2843759,62.9080168 44.3446265,62.8357542 44.4341783,62.7177374 C44.5490024,62.7845531 44.6588819,62.8453771 44.7544771,62.8920391 C44.9625157,62.9937151 45.2179855,63.0763268 45.5014747,63.1464106 L46.7367036,64.737095 C46.6665639,64.4533101 46.8249735,63.8601397 46.9844819,63.3777235 C47.5208771,63.4269274 48.0768675,63.451257 48.6052048,63.4603352 L49.3190554,65 L49.6212241,63.4645112 C49.9021494,63.461243 50.1590843,63.4552514 50.3771952,63.4492598 C51.4498024,63.4096788 53.6690024,63.2486313 54.6220241,62.7542318 C55.2296578,62.4381285 56.1431229,61.3639944 56.5452819,60.8118575 C59.5825349,56.5835894 60.5866506,54.9742039 61.3750361,53.3192458 C62.8957687,53.9231285 65.6713253,54.8937709 66.7607807,54.4569274 C67.8211181,54.032067 68.6397205,51.5613408 69.155788,50.5380447 C69.4848771,49.8835056 69.983547,48.4811034 70.1143036,47.7626536 C70.2390169,47.0728911 70.1762024,45.648338 70.3922988,44.9819972 C71.1240964,42.7231564 74.5290795,39.0806145 75.1872578,36.7938128 C76.0723373,33.7310056 76.1071325,27.1745391 75.6022361,24.0260335 Z" id="Fill-6" fill="#0067A5" mask="url(#mask-2)"></path>
            </g>
            <path d="M12,10.1109984 C12,10.1109984 12.0946598,11.8185144 13.6997796,10.500662 C13.6997796,10.500662 14.0899768,10.479029 13.9806865,10.3465272 C13.5136787,9.74323819 12,10.1109984 12,10.1109984" id="Fill-8" fill="#0F6BA7"></path>
            <path d="M106.948442,21.5622944 L105.691218,17.5859493 C105.465156,16.8754113 105.21322,15.8813695 105.013031,14.9348155 C104.78678,15.8813695 104.534844,16.8754113 104.308782,17.5859493 L103.051747,21.5622944 L106.948442,21.5622944 Z M103.253258,12 L106.746742,12 L112,28 L108.932956,28 L107.65118,23.9057359 L102.349008,23.9057359 L101.091785,28 L98,28 L103.253258,12 Z" id="Fill-9" fill="#1A1919"></path>
            <path d="M125.066493,18.0846103 C125.066493,15.5992191 123.806412,14.415068 121.988159,14.415068 C120.945045,14.415068 119.829791,14.6466283 118.908732,14.9486863 L118.908732,25.584932 L121.988159,25.584932 C124.096794,25.584932 125.066493,24.6562476 125.066493,22.1015803 L125.066493,18.0846103 Z M116,28 L116,13.300193 C117.890576,12.6268009 120.024168,12 121.988159,12 C125.237005,12 128,14.0664187 128,17.8518284 L128,22.2877709 C128,26.0719591 125.745628,28 121.988159,28 L116,28 Z" id="Fill-10" fill="#1A1919"></path>
            <path d="M130,12 L133.091638,12 L136.308678,22.4140507 C136.534743,23.1477101 136.786683,24.213606 137.012937,25.1832815 C137.213128,24.213606 137.465068,23.1720765 137.691322,22.4140507 L140.932914,12 L144,12 L138.746671,28 L135.25314,28 L130,12" id="Fill-11" fill="#1A1919"></path>
            <polyline id="Fill-12" fill="#1A1919" points="146 12 155.772848 12 155.772848 14.4615385 149.030021 14.4615385 149.030021 18.7455758 154.738234 18.7455758 154.58623 21.1121387 149.030021 21.1121387 149.030021 25.5384615 156 25.5384615 156 28 146 28 146 12"></polyline>
            <path d="M159,12 L161.435204,12 L168.038062,22.3909293 C167.98769,21.5148066 167.963164,20.6861716 167.963164,20.0231214 L167.963164,12 L171,12 L171,28 L168.48971,28 L161.911378,17.7040462 C161.987784,18.6032904 162.012121,19.4548688 162.012121,20.1424633 L162.012121,28 L159,28 L159,12" id="Fill-13" fill="#1A1919"></path>
            <polyline id="Fill-14" fill="#1A1919" points="178.453997 14.4615385 174 14.4615385 174 12 186 12 186 14.4615385 181.570963 14.4615385 181.570963 28 178.453997 28 178.453997 14.4615385"></polyline>
            <path d="M190,12 L192.926695,12 L192.926695,22.3331407 C192.926695,24.3077728 194.169212,25.584932 196,25.584932 C197.805131,25.584932 199.071472,24.3077728 199.071472,22.3331407 L199.071472,12 L202,12 L202,22.5420161 C202,25.793982 199.291387,28 196,28 C192.706781,28 190,25.793982 190,22.5420161 L190,12" id="Fill-15" fill="#1A1919"></path>
            <path d="M211.57348,19.5023566 C212.989813,19.5023566 213.919339,18.4851934 213.919339,16.9935082 C213.919339,15.503068 212.989813,14.4615385 211.57348,14.4615385 L208.931864,14.4615385 L208.931864,19.5023566 L211.57348,19.5023566 Z M206,12 L211.694723,12 C214.872745,12 216.902639,14.3190751 216.902639,16.9935082 C216.902639,18.9815918 215.728791,20.7094709 213.796259,21.4200089 L217,28 L213.700735,28 L210.864395,21.7983104 L208.931864,21.7983104 L208.931864,28 L206,28 L206,12 Z" id="Fill-16" fill="#1A1919"></path>
            <polyline id="Fill-17" fill="#1A1919" points="221 12 230.774151 12 230.774151 14.4615385 224.029038 14.4615385 224.029038 18.7455758 229.739799 18.7455758 229.587967 21.1121387 224.029038 21.1121387 224.029038 25.5384615 231 25.5384615 231 28 221 28 221 12"></polyline>
            <path d="M110,53.2935283 C108.312259,53.7715313 106.752558,54 104.960785,54 C100.960329,54 98,51.9484062 98,47.7316692 L98,44.2671319 C98,40.0517651 100.960329,38 104.960785,38 C106.727379,38 108.285519,38.2509045 110,38.706643 L109.403133,41.0087988 C108.026512,40.6433174 106.597778,40.3703196 104.987329,40.3703196 C102.649436,40.3703196 101.116475,41.5325298 101.116475,44.4721372 L101.116475,47.526664 C101.116475,50.5131982 102.649436,51.6296804 104.987329,51.6296804 C106.597778,51.6296804 108.026512,51.3789471 109.403133,50.9912012 L110,53.2935283" id="Fill-18" fill="#1A1919"></path>
            <path d="M120.948253,47.5622228 L119.691218,43.5860114 C119.465156,42.8754655 119.213031,41.8812348 119.013031,40.9346702 C118.786969,41.8812348 118.535033,42.8754655 118.308782,43.5860114 L117.051747,47.5622228 L120.948253,47.5622228 Z M117.253447,38 L120.746931,38 L126,54 L122.932956,54 L121.65118,49.9056904 L116.34882,49.9056904 L115.091785,54 L112,54 L117.253447,38 Z" id="Fill-19" fill="#1A1919"></path>
            <path d="M130,38 L132.435504,38 L139.038155,48.3906891 C138.987785,47.5149123 138.96326,46.6860903 138.96326,46.0230327 L138.96326,38 L142,38 L142,54 L139.489789,54 L132.911663,43.7039318 C132.98769,44.6031859 133.012404,45.4549517 133.012404,46.142376 L133.012404,54 L130,54 L130,38" id="Fill-20" fill="#1A1919"></path>
            <path d="M153.948442,47.5622228 L152.691407,43.5860114 C152.465156,42.8754655 152.21322,41.8812348 152.013031,40.9346702 C151.78678,41.8812348 151.534844,42.8754655 151.308782,43.5860114 L150.051747,47.5622228 L153.948442,47.5622228 Z M150.253258,38 L153.746742,38 L159,54 L155.932956,54 L154.650992,49.9056904 L149.34882,49.9056904 L148.091785,54 L145,54 L150.253258,38 Z" id="Fill-21" fill="#1A1919"></path>
            <path d="M170.066537,44.0846103 C170.066537,41.5992191 168.806476,40.415068 166.98825,40.415068 C165.94497,40.415068 164.829733,40.6466283 163.90887,40.9486863 L163.90887,51.5851065 L166.98825,51.5851065 C169.096671,51.5851065 170.066537,50.6562476 170.066537,48.1017548 L170.066537,44.0846103 Z M161,54 L161,39.3000185 C162.890547,38.6268009 165.024107,38 166.98825,38 C170.237047,38 173,40.0664187 173,43.8518284 L173,48.2877709 C173,52.0721336 170.74548,54 166.98825,54 L161,54 Z" id="Fill-22" fill="#1A1919"></path>
            <path d="M184.948269,47.5622228 L183.690529,43.5860114 C183.463909,42.8754655 183.212739,41.8812348 183.012559,40.9346702 C182.785939,41.8812348 182.534769,42.8754655 182.308149,43.5860114 L181.051354,47.5622228 L184.948269,47.5622228 Z M181.252856,38 L184.746199,38 L190,54 L186.93308,54 L185.65079,49.9056904 L180.348644,49.9056904 L179.09166,54 L176,54 L181.252856,38 Z" id="Fill-23" fill="#1A1919"></path>
        </g>
    </g>
</svg>