<?xml version="1.0" encoding="UTF-8"?>
<svg width="225px" height="15px" viewBox="0 0 225 15" version="1.1" xmlns="http://www.w3.org/2000/svg" xmlns:xlink="http://www.w3.org/1999/xlink">
    <!-- Generator: Sketch 48.2 (47327) - http://www.bohemiancoding.com/sketch -->
    <title>SHARE    PRINT </title>
    <desc>Created with Sketch.</desc>
    <defs></defs>
    <g id="Page-1" stroke="none" stroke-width="1" fill="none" fill-rule="evenodd">
        <path d="M7.94777096,9.9609375 C7.94777096,10.9661509 7.58319127,11.7499972 6.85402096,12.3125 C6.12485065,12.8750028 5.13527721,13.15625 3.88527096,13.15625 C2.53109752,13.15625 1.48944127,12.9817726 0.760270958,12.6328125 L0.760270958,11.3515625 C1.2290233,11.5494802 1.73943486,11.7057286 2.29152096,11.8203125 C2.84360705,11.9348964 3.39047658,11.9921875 3.93214596,11.9921875 C4.81756705,11.9921875 5.48422705,11.8242204 5.93214596,11.4882812 C6.38006486,11.1523421 6.60402096,10.6848988 6.60402096,10.0859375 C6.60402096,9.69010219 6.52459467,9.36588668 6.36573971,9.11328125 C6.20688475,8.86067582 5.9412624,8.62760523 5.56886471,8.4140625 C5.19646701,8.20051977 4.63006643,7.95833469 3.86964596,7.6875 C2.80714065,7.30728977 2.04803365,6.85677344 1.59230221,6.3359375 C1.13657076,5.81510156 0.908708458,5.13542086 0.908708458,4.296875 C0.908708458,3.41666227 1.23943432,2.71614844 1.90089596,2.1953125 C2.5623576,1.67447656 3.43734885,1.4140625 4.52589596,1.4140625 C5.6613183,1.4140625 6.70557869,1.62239375 7.65870846,2.0390625 L7.24464596,3.1953125 C6.30193291,2.79947719 5.38527541,2.6015625 4.49464596,2.6015625 C3.79151744,2.6015625 3.24204377,2.75260266 2.84620846,3.0546875 C2.45037315,3.35677234 2.25245846,3.77603898 2.25245846,4.3125 C2.25245846,4.70833531 2.3253744,5.03255082 2.47120846,5.28515625 C2.61704252,5.53776168 2.86313381,5.7695302 3.20948971,5.98046875 C3.55584561,6.1914073 4.08578822,6.42447789 4.79933346,6.6796875 C5.99725611,7.10677297 6.82146662,7.56510172 7.27198971,8.0546875 C7.72251279,8.54427328 7.94777096,9.17968359 7.94777096,9.9609375 Z M19.511139,13 L18.183014,13 L18.183014,7.625 L12.167389,7.625 L12.167389,13 L10.839264,13 L10.839264,1.578125 L12.167389,1.578125 L12.167389,6.4375 L18.183014,6.4375 L18.183014,1.578125 L19.511139,1.578125 L19.511139,13 Z M30.3791946,13 L28.9573196,9.3671875 L24.3791946,9.3671875 L22.9729446,13 L21.6291946,13 L26.1448196,1.53125 L27.2620071,1.53125 L31.7541946,13 L30.3791946,13 Z M28.5432571,8.171875 L27.2151321,4.6328125 C27.0432563,4.18489359 26.8661747,3.63541992 26.6838821,2.984375 C26.5692982,3.4843775 26.4052374,4.03385117 26.1916946,4.6328125 L24.8479446,8.171875 L28.5432571,8.171875 Z M35.2081877,8.25 L35.2081877,13 L33.8800627,13 L33.8800627,1.578125 L37.0128752,1.578125 C38.4139239,1.578125 39.4490698,1.84635148 40.118344,2.3828125 C40.7876181,2.91927352 41.1222502,3.72655711 41.1222502,4.8046875 C41.1222502,6.31511172 40.3566329,7.33593484 38.8253752,7.8671875 L41.9269377,13 L40.3566252,13 L37.5910002,8.25 L35.2081877,8.25 Z M35.2081877,7.109375 L37.0285002,7.109375 C37.9660049,7.109375 38.653498,6.92317895 39.0910002,6.55078125 C39.5285024,6.17838355 39.7472502,5.61979539 39.7472502,4.875 C39.7472502,4.11978789 39.5245962,3.5755225 39.0792815,3.2421875 C38.6339667,2.9088525 37.9191301,2.7421875 36.9347502,2.7421875 L35.2081877,2.7421875 L35.2081877,7.109375 Z M50.6934308,13 L44.3262433,13 L44.3262433,1.578125 L50.6934308,1.578125 L50.6934308,2.7578125 L45.6543683,2.7578125 L45.6543683,6.4375 L50.3887433,6.4375 L50.3887433,7.609375 L45.6543683,7.609375 L45.6543683,11.8125 L50.6934308,11.8125 L50.6934308,13 Z M73.3599055,0.428556442 C74.77955,0.428556442 75.9313371,1.58034353 75.9313371,2.99998808 L75.9313371,11.5714269 C75.9313371,12.9910714 74.77955,14.1428585 73.3599055,14.1428585 L71.681332,14.1428585 L71.681332,8.83035217 L73.4581199,8.83035217 L73.7259773,6.75892113 L71.681332,6.75892113 L71.681332,5.43749098 C71.681332,4.83927599 71.8420465,4.43748979 72.708119,4.43748979 L73.797406,4.42856121 L73.797406,2.58034472 C73.6099058,2.55355898 72.9581193,2.49998748 72.2081184,2.49998748 C70.6277593,2.49998748 69.5384723,3.46427435 69.5384723,5.2321336 L69.5384723,6.75892113 L67.7527559,6.75892113 L67.7527559,8.83035217 L69.5384723,8.83035217 L69.5384723,14.1428585 L64.7884667,14.1428585 C63.3688221,14.1428585 62.217035,12.9910714 62.217035,11.5714269 L62.217035,2.99998808 C62.217035,1.58034353 63.3688221,0.428556442 64.7884667,0.428556442 L73.3599055,0.428556442 Z M97.0265725,4.732133 C96.6872864,4.8839189 96.3301431,4.9821333 95.9462141,5.03570479 C96.3390717,4.80356166 96.6337149,4.42856121 96.7765722,3.99106069 C96.4105004,4.20534666 96.0087142,4.36606114 95.5801423,4.44641837 C95.2408561,4.08034651 94.7497841,3.85713196 94.2140692,3.85713196 C93.1783537,3.85713196 92.339067,4.69641867 92.339067,5.73213419 C92.339067,5.87499151 92.3479955,6.0267774 92.3837099,6.16070613 C90.821208,6.08034889 89.4372778,5.33927658 88.5087052,4.19641808 C88.3479908,4.47320412 88.2497764,4.80356166 88.2497764,5.14284778 C88.2497764,5.79463427 88.5533482,6.36606352 89.0622773,6.70534964 C88.749777,6.69642106 88.4551338,6.60713524 88.1694191,6.47320651 L88.1694191,6.49106367 C88.1694191,7.40177904 88.8569199,8.16070852 89.7140638,8.33035158 C89.5533494,8.37499449 89.4283492,8.40178023 89.2587061,8.40178023 C89.1426346,8.40178023 89.026563,8.38392307 88.9104914,8.3660659 C89.1515632,9.10713822 89.839064,9.65178172 90.6604935,9.66963889 C90.0176356,10.1696395 89.2140632,10.4732113 88.3301336,10.4732113 C88.1783477,10.4732113 88.0265618,10.4642827 87.8837045,10.4464255 C88.7140626,10.9732119 89.6962067,11.2857122 90.7587079,11.2857122 C94.2051406,11.2857122 96.098,8.42856598 96.098,5.94642016 C96.098,5.86606292 96.098,5.78570569 96.0890714,5.70534845 C96.4551433,5.44641957 96.7765722,5.11606203 97.0265725,4.732133 Z M99.3122896,2.99998808 L99.3122896,11.5714269 C99.3122896,12.9910714 98.1605025,14.1428585 96.7408579,14.1428585 L88.1694191,14.1428585 C86.7497746,14.1428585 85.5979875,12.9910714 85.5979875,11.5714269 L85.5979875,2.99998808 C85.5979875,1.58034353 86.7497746,0.428556442 88.1694191,0.428556442 L96.7408579,0.428556442 C98.1605025,0.428556442 99.3122896,1.58034353 99.3122896,2.99998808 Z M124.978959,5.62499121 L124.978959,12.7142854 C124.978959,13.5000006 124.336101,14.1428585 123.550386,14.1428585 L110.407513,14.1428585 C109.621798,14.1428585 108.97894,13.5000006 108.97894,12.7142854 L108.97894,5.62499121 C109.246797,5.91963442 109.550369,6.1785633 109.880727,6.40177785 C111.362871,7.41070762 112.862873,8.4196374 114.318232,9.48213866 C115.068233,10.0357108 115.996805,10.714283 116.970021,10.714283 L116.987878,10.714283 C117.961094,10.714283 118.889666,10.0357108 119.639667,9.48213866 C121.095026,8.42856598 122.595028,7.41070762 124.086101,6.40177785 C124.40753,6.1785633 124.711102,5.91963442 124.978959,5.62499121 Z M124.978959,2.99998808 C124.978959,3.99998927 124.237887,4.90177606 123.452171,5.44641957 C122.059313,6.41070643 120.657525,7.37499329 119.273595,8.34820874 C118.693237,8.74999493 117.711093,9.57142448 116.987878,9.57142448 L116.970021,9.57142448 C116.246806,9.57142448 115.264662,8.74999493 114.684304,8.34820874 C113.300374,7.37499329 111.898586,6.41070643 110.514656,5.44641957 C109.880727,5.01784763 108.97894,4.00891785 108.97894,3.19641688 C108.97894,2.32141584 109.452155,1.57141495 110.407513,1.57141495 L123.550386,1.57141495 C124.327173,1.57141495 124.978959,2.21427286 124.978959,2.99998808 Z M161.680329,4.90625 C161.680329,6.06250578 161.285802,6.9518198 160.496735,7.57421875 C159.707669,8.1966177 158.578774,8.5078125 157.110017,8.5078125 L155.766267,8.5078125 L155.766267,13 L154.438142,13 L154.438142,1.578125 L157.399079,1.578125 C160.25326,1.578125 161.680329,2.68748891 161.680329,4.90625 Z M155.766267,7.3671875 L156.961579,7.3671875 C158.138668,7.3671875 158.990222,7.17708523 159.516267,6.796875 C160.042311,6.41666477 160.305329,5.80729586 160.305329,4.96875 C160.305329,4.21353789 160.057936,3.65104352 159.563142,3.28125 C159.068347,2.91145648 158.297522,2.7265625 157.250642,2.7265625 L155.766267,2.7265625 L155.766267,7.3671875 Z M165.954635,8.25 L165.954635,13 L164.62651,13 L164.62651,1.578125 L167.759322,1.578125 C169.160371,1.578125 170.195517,1.84635148 170.864791,2.3828125 C171.534065,2.91927352 171.868697,3.72655711 171.868697,4.8046875 C171.868697,6.31511172 171.10308,7.33593484 169.571822,7.8671875 L172.673385,13 L171.103072,13 L168.337447,8.25 L165.954635,8.25 Z M165.954635,7.109375 L167.774947,7.109375 C168.712452,7.109375 169.399945,6.92317895 169.837447,6.55078125 C170.274949,6.17838355 170.493697,5.61979539 170.493697,4.875 C170.493697,4.11978789 170.271043,3.5755225 169.825728,3.2421875 C169.380414,2.9088525 168.665577,2.7421875 167.681197,2.7421875 L165.954635,2.7421875 L165.954635,7.109375 Z M175.07269,13 L175.07269,1.578125 L176.400815,1.578125 L176.400815,13 L175.07269,13 Z M189.011058,13 L187.495433,13 L181.253246,3.4140625 L181.190746,3.4140625 C181.27408,4.53906812 181.315746,5.57030781 181.315746,6.5078125 L181.315746,13 L180.089183,13 L180.089183,1.578125 L181.589183,1.578125 L187.815746,11.125 L187.878246,11.125 C187.867829,10.9843743 187.844392,10.5325559 187.807933,9.76953125 C187.771475,9.0065066 187.758454,8.46093914 187.768871,8.1328125 L187.768871,1.578125 L189.011058,1.578125 L189.011058,13 Z M196.222864,13 L194.894739,13 L194.894739,2.7578125 L191.277551,2.7578125 L191.277551,1.578125 L199.840051,1.578125 L199.840051,2.7578125 L196.222864,2.7578125 L196.222864,13 Z M213.083731,13 L221.083741,13 L221.083741,10.714283 L213.083731,10.714283 L213.083731,13 Z M213.083731,7.28570747 L221.083741,7.28570747 L221.083741,3.85713196 L219.655168,3.85713196 C219.181953,3.85713196 218.798024,3.47320293 218.798024,2.99998808 L218.798024,1.57141495 L213.083731,1.57141495 L213.083731,7.28570747 Z M223.369458,7.85713673 C223.369458,7.54463635 223.110529,7.28570747 222.798028,7.28570747 C222.485528,7.28570747 222.226599,7.54463635 222.226599,7.85713673 C222.226599,8.1696371 222.485528,8.42856598 222.798028,8.42856598 C223.110529,8.42856598 223.369458,8.1696371 223.369458,7.85713673 Z M224.512316,7.85713673 L224.512316,11.5714269 C224.512316,11.7232128 224.378387,11.8571415 224.226602,11.8571415 L222.226599,11.8571415 L222.226599,13.2857146 C222.226599,13.7589295 221.84267,14.1428585 221.369455,14.1428585 L212.798016,14.1428585 C212.324802,14.1428585 211.940873,13.7589295 211.940873,13.2857146 L211.940873,11.8571415 L209.94087,11.8571415 C209.789084,11.8571415 209.655156,11.7232128 209.655156,11.5714269 L209.655156,7.85713673 C209.655156,6.91963561 210.431942,6.14284897 211.369443,6.14284897 L211.940873,6.14284897 L211.940873,1.28570032 C211.940873,0.812485471 212.324802,0.428556442 212.798016,0.428556442 L218.798024,0.428556442 C219.271238,0.428556442 219.923025,0.696413904 220.262311,1.03570002 L221.619456,2.3928445 C221.958742,2.73213062 222.226599,3.38391711 222.226599,3.85713196 L222.226599,6.14284897 L222.798028,6.14284897 C223.73553,6.14284897 224.512316,6.91963561 224.512316,7.85713673 Z" id="SHARE----PRINT-" fill="#0066A7"></path>
    </g>
</svg>