<svg width="73" height="73" viewBox="0 0 73 73" xmlns="http://www.w3.org/2000/svg" xmlns:xlink="http://www.w3.org/1999/xlink"><title>Group</title><defs><rect id="a" width="73" height="73" rx="4"/><path id="b" d="M8 8h58v58H8z"/></defs><g fill="none" fill-rule="evenodd"><use fill="#D8D8D8" xlink:href="#a"/><rect stroke="#979797" x=".5" y=".5" width="72" height="72" rx="4"/><use fill="#FFF" xlink:href="#b"/><path stroke="#979797" d="M8.5 8.5h57v57h-57z"/><circle stroke="#979797" fill="#D8D8D8" cx="51.5" cy="21.5" r="6.5"/><path d="M9 45c7.442 0 8.34-2 15.913-2 7.572 0 5.651 2 12.003 2s8.548-2 15.437-2c6.89 0 8.885 2 12.647 2M9 56.329c6.637 0 14.073-1.329 27.249-1.329C49.425 55 57.273 57 65 57M9 53.993c6.637 0 14.073-1.993 27.249-1.993C49.425 52 57.273 55 65 55m0-7.671L9 48c7.727 0 15.575-2 28.751-2C50.927 46 58.363 47.329 65 47.329zm0 11L9 59c7.727 0 15.575-2 28.751-2C50.927 57 58.363 58.329 65 58.329zm0 4L9 63c7.727 0 15.575-2 28.751-2C50.927 61 58.363 62.329 65 62.329z" stroke="#979797"/><path d="M9 51.993c6.637 0 14.073-1.993 27.249-1.993C49.425 50 57.273 53 65 53" stroke="#979797"/></g></svg>