<svg width="42" height="42" viewBox="0 0 42 42" xmlns="http://www.w3.org/2000/svg"><title></title><path d="M17.143 26L24 22.571l-6.857-3.428V26zm10.286-15.83v14.517l-13.715 6.858V17.027L27.43 10.17zm7.714 10.687c0-8.036-6.536-14.571-14.572-14.571C12.536 6.286 6 12.82 6 20.857S12.536 35.43 20.571 35.43c8.036 0 14.572-6.536 14.572-14.572zm6 0c0 11.357-9.214 20.572-20.572 20.572C9.214 41.429 0 32.214 0 20.857S9.214.286 20.571.286C31.93.286 41.143 9.5 41.143 20.857z" fill="#0067A5" fill-rule="evenodd"/></svg>