<svg width="25" height="24" viewBox="0 0 25 24" xmlns="http://www.w3.org/2000/svg"><title></title><path d="M21.781 20.281V10.156h-2.11c.204.64.313 1.344.313 2.047 0 4-3.343 7.234-7.468 7.234-4.11 0-7.453-3.234-7.453-7.234 0-.703.109-1.406.312-2.047H3.172v10.125c0 .531.422.953.953.953h16.703a.947.947 0 0 0 .953-.953zm-4.437-8.328c0-2.578-2.156-4.672-4.828-4.672-2.657 0-4.813 2.094-4.813 4.672s2.156 4.672 4.813 4.672c2.672 0 4.828-2.094 4.828-4.672zm4.437-5.625V3.75a1.08 1.08 0 0 0-1.078-1.078h-2.719a1.08 1.08 0 0 0-1.078 1.078v2.578a1.08 1.08 0 0 0 1.078 1.078h2.72a1.08 1.08 0 0 0 1.077-1.078zm2.719-3.25v17.844A3.094 3.094 0 0 1 21.422 24H3.578A3.094 3.094 0 0 1 .5 20.922V3.078A3.094 3.094 0 0 1 3.578 0h17.844A3.094 3.094 0 0 1 24.5 3.078z" fill="#0067A5" fill-rule="evenodd"/></svg>