<?xml version="1.0" encoding="UTF-8"?>
<svg width="18px" height="17px" viewBox="0 0 18 17" version="1.1" xmlns="http://www.w3.org/2000/svg" xmlns:xlink="http://www.w3.org/1999/xlink">
    <!-- Generator: Sketch 48.2 (47327) - http://www.bohemiancoding.com/sketch -->
    <title></title>
    <desc>Created with Sketch.</desc>
    <defs></defs>
    <g id="Page-1" stroke="none" stroke-width="1" fill="none" fill-rule="evenodd">
        <path d="M17.4442179,8.69418891 C17.4442179,9.07365365 17.2879677,9.43079693 17.0312709,9.69865439 L16.1942164,10.535709 C15.9263589,10.8035664 15.5580549,10.9598166 15.1785902,10.9598166 C14.7991254,10.9598166 14.4308214,10.8035664 14.1741247,10.535709 L10.8928708,7.26561578 L10.8928708,15.122768 C10.8928708,15.9263404 10.2232271,16.4285731 9.46429764,16.4285731 L8.0357245,16.4285731 C7.27679503,16.4285731 6.60715137,15.9263404 6.60715137,15.122768 L6.60715137,7.26561578 L3.32589746,10.535709 C3.06920073,10.8035664 2.70089672,10.9598166 2.32143198,10.9598166 C1.94196724,10.9598166 1.57366323,10.8035664 1.31696649,10.535709 L0.479911925,9.69865439 C0.212054463,9.43079693 0.0558042766,9.07365365 0.0558042766,8.69418891 C0.0558042766,8.31472417 0.212054463,7.94642016 0.479911925,7.6785627 L7.74554559,0.412929039 C8.00224232,0.145071577 8.37054633,-1.78813934e-05 8.75001107,-1.78813934e-05 C9.12947581,-1.78813934e-05 9.49777982,0.145071577 9.76563728,0.412929039 L17.0312709,7.6785627 C17.2879677,7.94642016 17.4442179,8.31472417 17.4442179,8.69418891 Z" id="" fill="#0063FF"></path>
    </g>
</svg>