<?xml version="1.0" encoding="UTF-8"?>
<svg width="14px" height="18px" viewBox="0 0 14 18" version="1.1" xmlns="http://www.w3.org/2000/svg" xmlns:xlink="http://www.w3.org/1999/xlink">
    <!-- Generator: Sketch 48.2 (47327) - http://www.bohemiancoding.com/sketch -->
    <title>Group 2 Copy</title>
    <desc>Created with Sketch.</desc>
    <defs></defs>
    <g id="Page-1" stroke="none" stroke-width="1" fill="none" fill-rule="evenodd">
        <g id="Group-2-Copy" fill="#FFFFFF">
            <path d="M0,0 L14,0 L14,18 L0,18 L0,0 Z M3,1 C1.8954305,1 1,1.8954305 1,3 L1,15 C1,16.1045695 1.8954305,17 3,17 L11,17 C12.1045695,17 13,16.1045695 13,15 L13,3 C13,1.8954305 12.1045695,1 11,1 L3,1 Z M3.52173913,3 L10.4782609,3 C10.7664094,3 11,3.23359057 11,3.52173913 C11,3.8098877 10.7664094,4.04347826 10.4782609,4.04347826 L3.52173913,4.04347826 C3.23359057,4.04347826 3,3.8098877 3,3.52173913 C3,3.23359057 3.23359057,3 3.52173913,3 Z M3.52173913,5 L10.4782609,5 C10.7664094,5 11,5.23359057 11,5.52173913 C11,5.8098877 10.7664094,6.04347826 10.4782609,6.04347826 L3.52173913,6.04347826 C3.23359057,6.04347826 3,5.8098877 3,5.52173913 C3,5.23359057 3.23359057,5 3.52173913,5 Z M3.52173913,7 L10.4782609,7 C10.7664094,7 11,7.23359057 11,7.52173913 C11,7.8098877 10.7664094,8.04347826 10.4782609,8.04347826 L3.52173913,8.04347826 C3.23359057,8.04347826 3,7.8098877 3,7.52173913 C3,7.23359057 3.23359057,7 3.52173913,7 Z M5.52173913,14 L8.47826087,14 C8.76640943,14 9,14.2335906 9,14.5217391 C9,14.8098877 8.76640943,15.0434783 8.47826087,15.0434783 L5.52173913,15.0434783 C5.23359057,15.0434783 5,14.8098877 5,14.5217391 C5,14.2335906 5.23359057,14 5.52173913,14 Z" id="Combined-Shape"></path>
        </g>
    </g>
</svg>