<?xml version="1.0" encoding="UTF-8"?>
<svg width="12px" height="16px" viewBox="0 0 12 16" version="1.1" xmlns="http://www.w3.org/2000/svg" xmlns:xlink="http://www.w3.org/1999/xlink">
    <!-- Generator: Sketch 48.2 (47327) - http://www.bohemiancoding.com/sketch -->
    <title>brochure</title>
    <desc>Created with Sketch.</desc>
    <defs></defs>
    <g id="Page-1" stroke="none" stroke-width="1" fill="none" fill-rule="evenodd">
        <g id="brochure" fill="#005DFF" fill-rule="nonzero">
            <path d="M2,0 C0.8954305,0 0,0.8954305 0,2 L0,14 C0,15.1045695 0.8954305,16 2,16 L10,16 C11.1045695,16 12,15.1045695 12,14 L12,2 C12,0.8954305 11.1045695,0 10,0 L2,0 Z M2.52173913,2 L9.4782609,2 C9.7664094,2 10,2.23359057 10,2.52173913 C10,2.8098877 9.7664094,3.04347826 9.4782609,3.04347826 L2.52173913,3.04347826 C2.23359057,3.04347826 2,2.8098877 2,2.52173913 C2,2.23359057 2.23359057,2 2.52173913,2 Z M2.52173913,4 L9.4782609,4 C9.7664094,4 10,4.23359057 10,4.52173913 C10,4.8098877 9.7664094,5.04347826 9.4782609,5.04347826 L2.52173913,5.04347826 C2.23359057,5.04347826 2,4.8098877 2,4.52173913 C2,4.23359057 2.23359057,4 2.52173913,4 Z M2.52173913,6 L9.4782609,6 C9.7664094,6 10,6.23359057 10,6.52173913 C10,6.8098877 9.7664094,7.04347826 9.4782609,7.04347826 L2.52173913,7.04347826 C2.23359057,7.04347826 2,6.8098877 2,6.52173913 C2,6.23359057 2.23359057,6 2.52173913,6 Z M4.52173913,13 L7.47826087,13 C7.76640943,13 8,13.2335906 8,13.5217391 C8,13.8098877 7.76640943,14.0434783 7.47826087,14.0434783 L4.52173913,14.0434783 C4.23359057,14.0434783 4,13.8098877 4,13.5217391 C4,13.2335906 4.23359057,13 4.52173913,13 Z" id="Combined-Shape"></path>
        </g>
    </g>
</svg>