<?xml version="1.0" encoding="UTF-8"?>
<svg width="18px" height="14px" viewBox="0 0 18 14" version="1.1" xmlns="http://www.w3.org/2000/svg" xmlns:xlink="http://www.w3.org/1999/xlink">
    <!-- Generator: Sketch 48.2 (47327) - http://www.bohemiancoding.com/sketch -->
    <title></title>
    <desc>Created with Sketch.</desc>
    <defs></defs>
    <g id="Page-1" stroke="none" stroke-width="1" fill="none" fill-rule="evenodd">
        <path d="M17.350448,3.12352598 C17.350448,3.397095 17.2407706,3.67066402 17.0433513,3.86763372 L7.6110932,13.2784081 C7.41367384,13.4753778 7.1394803,13.5848054 6.86528675,13.5848054 C6.5910932,13.5848054 6.31689965,13.4753778 6.1194803,13.2784081 L0.657544813,7.82891318 C0.460125458,7.63194348 0.350448038,7.35837446 0.350448038,7.08480544 C0.350448038,6.81123641 0.460125458,6.53766739 0.657544813,6.34069769 L2.14915772,4.8524822 C2.34657707,4.65551251 2.62077062,4.5460849 2.89496417,4.5460849 C3.16915772,4.5460849 3.44335126,4.65551251 3.64077062,4.8524822 L6.86528675,8.08059668 L14.0601255,0.891202743 C14.2575448,0.694233046 14.5317384,0.584805436 14.8059319,0.584805436 C15.0801255,0.584805436 15.354319,0.694233046 15.5517384,0.891202743 L17.0433513,2.37941823 C17.2407706,2.57638793 17.350448,2.84995695 17.350448,3.12352598 Z" id="" fill="#0067A5"></path>
    </g>
</svg>