<?xml version="1.0" encoding="UTF-8"?>
<svg width="18px" height="18px" viewBox="0 0 18 18" version="1.1" xmlns="http://www.w3.org/2000/svg" xmlns:xlink="http://www.w3.org/1999/xlink">
    <!-- Generator: Sketch 48.2 (47327) - http://www.bohemiancoding.com/sketch -->
    <title>Combined Shape</title>
    <desc>Created with Sketch.</desc>
    <defs></defs>
    <g id="Page-1" stroke="none" stroke-width="1" fill="none" fill-rule="evenodd">
        <g id="Group-3-Copy" fill="#FFFFFF">
            <g id="57" transform="translate(9.000000, 9.000000) scale(-1, 1) translate(-9.000000, -9.000000) ">
                <path d="M0,0 L18,0 L18,18 L0,18 L0,0 Z M3.29049462,16.9379679 C3.40653763,16.9377968 3.52447312,16.908107 3.63088172,16.8518075 C6.27741935,15.4530481 8.71277419,13.6927059 10.8689032,11.619893 C11.0869677,11.4120642 11.4347527,11.0663102 11.6437849,10.8492406 C13.7265376,8.70583957 15.4962581,6.28367914 16.9036559,3.64992513 C16.9940645,3.48119786 17.0151398,3.28748663 16.9612903,3.11833155 C16.9167312,2.97860963 16.8244301,2.86746524 16.7016774,2.8057754 L13.3228387,1.09334759 C13.243957,1.05373262 13.1589677,1.03362567 13.0701075,1.03362567 C12.851957,1.03362567 12.6524731,1.15418182 12.5489892,1.34789305 C12.0271828,2.32389305 11.4396559,3.27713369 10.8023226,4.18083422 C10.6203011,4.43854545 10.6764731,4.79687701 10.928086,4.9795508 L12.3223226,5.98806417 C12.3905376,6.03709091 12.4353548,6.11306952 12.4486882,6.20196791 C12.4646022,6.30763636 12.4342366,6.42023529 12.3653333,6.51101604 C11.6369032,7.4728984 10.840086,8.40029947 9.99741935,9.26780749 C9.80309677,9.46896257 9.48068817,9.78964706 9.2787957,9.98301604 C8.40868817,10.8195508 7.47647312,11.6119358 6.50795699,12.3378396 C6.33892473,12.4638717 6.08954839,12.4426524 5.98193548,12.2943743 L4.96774194,10.907508 C4.79045161,10.6670802 4.41591398,10.6082139 4.16516129,10.7827594 C3.25410753,11.418139 2.29574194,12.0027807 1.31655914,12.5202567 C1.03612903,12.6683636 0.921204301,13.0136898 1.06090323,13.2904813 L2.78253763,16.6505668 C2.87251613,16.8277647 3.06701075,16.9379679 3.29049462,16.9379679 Z" id="Combined-Shape"></path>
            </g>
        </g>
    </g>
</svg>