<?xml version="1.0" encoding="UTF-8"?>
<svg width="16px" height="16px" viewBox="0 0 16 16" version="1.1" xmlns="http://www.w3.org/2000/svg" xmlns:xlink="http://www.w3.org/1999/xlink">
    <!-- Generator: Sketch 48.2 (47327) - http://www.bohemiancoding.com/sketch -->
    <title>phone</title>
    <desc>Created with Sketch.</desc>
    <defs></defs>
    <g id="Page-1" stroke="none" stroke-width="1" fill="none" fill-rule="evenodd">
        <g id="phone" fill="#005DFF" fill-rule="nonzero">
            <g id="57" transform="translate(8.000000, 8.000000) scale(-1, 1) translate(-8.000000, -8.000000) ">
                <path d="M2.29049462,15.9379679 C2.40653763,15.9377968 2.52447312,15.908107 2.63088172,15.8518075 C5.27741935,14.4530481 7.71277419,12.6927059 9.8689032,10.619893 C10.0869677,10.4120642 10.4347527,10.0663102 10.6437849,9.8492406 C12.7265376,7.70583957 14.4962581,5.28367914 15.9036559,2.64992513 C15.9940645,2.48119786 16.0151398,2.28748663 15.9612903,2.11833155 C15.9167312,1.97860963 15.8244301,1.86746524 15.7016774,1.8057754 L12.3228387,0.09334759 C12.243957,0.05373262 12.1589677,0.03362567 12.0701075,0.03362567 C11.851957,0.03362567 11.6524731,0.15418182 11.5489892,0.34789305 C11.0271828,1.32389305 10.4396559,2.27713369 9.8023226,3.18083422 C9.6203011,3.43854545 9.6764731,3.79687701 9.928086,3.9795508 L11.3223226,4.98806417 C11.3905376,5.03709091 11.4353548,5.11306952 11.4486882,5.20196791 C11.4646022,5.30763636 11.4342366,5.42023529 11.3653333,5.51101604 C10.6369032,6.4728984 9.840086,7.40029947 8.99741935,8.26780749 C8.80309677,8.46896257 8.48068817,8.78964706 8.2787957,8.98301604 C7.40868817,9.8195508 6.47647312,10.6119358 5.50795699,11.3378396 C5.33892473,11.4638717 5.08954839,11.4426524 4.98193548,11.2943743 L3.96774194,9.907508 C3.79045161,9.6670802 3.41591398,9.6082139 3.16516129,9.7827594 C2.25410753,10.418139 1.29574194,11.0027807 0.31655914,11.5202567 C0.03612903,11.6683636 -0.078795699,12.0136898 0.06090323,12.2904813 L1.78253763,15.6505668 C1.87251613,15.8277647 2.06701075,15.9379679 2.29049462,15.9379679 Z" id="Combined-Shape"></path>
            </g>
        </g>
    </g>
</svg>