<?xml version="1.0" encoding="UTF-8"?>
<svg width="46px" height="46px" viewBox="0 0 46 46" version="1.1" xmlns="http://www.w3.org/2000/svg" xmlns:xlink="http://www.w3.org/1999/xlink">
    <!-- Generator: Sketch 48.2 (47327) - http://www.bohemiancoding.com/sketch -->
    <title>57</title>
    <desc>Created with Sketch.</desc>
    <defs></defs>
    <g id="Page-1" stroke="none" stroke-width="1" fill="none" fill-rule="evenodd">
        <g id="57" transform="translate(23.000000, 23.000000) scale(-1, 1) translate(-23.000000, -23.000000) " fill="#000000" fill-rule="nonzero">
            <g id="Group">
                <path d="M6.58517204,45.8216578 C5.94265591,45.8216578 5.38348387,45.5048235 5.1247957,44.9953797 L0.175096774,35.3351337 C-0.226537634,34.5393583 0.103870968,33.5465455 0.910107527,33.120738 C3.72525806,31.6329947 6.48055914,29.9521497 9.09983871,28.1254332 C9.82075269,27.623615 10.8975484,27.7928556 11.4072581,28.4840856 L14.3230645,32.4713262 C14.6324516,32.8976257 15.3494086,32.958631 15.8353763,32.5962888 C18.6198602,30.5093155 21.2999785,28.2312086 23.8015376,25.8261711 C24.3819785,25.2702353 25.3089032,24.3482674 25.8675806,23.7699465 C28.2902473,21.275861 30.5810968,18.6095829 32.6753333,15.8441711 C32.8734301,15.5831765 32.9607312,15.2594545 32.9149785,14.9556578 C32.8766452,14.7000749 32.7477957,14.4816364 32.5516774,14.3406845 L28.5432473,11.4412086 C27.8198602,10.9160214 27.6583656,9.88581818 28.1816774,9.1448984 C30.0140108,6.54675936 31.7031505,3.80619251 33.2033441,1.00019251 C33.5008602,0.443272727 34.0743763,0.0966737968 34.7015591,0.0966737968 C34.9570323,0.0966737968 35.2013763,0.154481283 35.4281613,0.268374332 L45.1423226,5.19160428 C45.4952366,5.36896257 45.7606022,5.68850267 45.8887097,6.09020321 C46.0435269,6.57652406 45.9829355,7.13344385 45.7230108,7.61853476 C41.6767419,15.1905775 36.5887957,22.1542888 30.6008817,28.3165668 C29.999914,28.9406417 29.0000323,29.9346845 28.3730968,30.5321925 C22.1742258,36.4915294 15.1725806,41.5525134 7.56378495,45.5739465 C7.25786022,45.7358075 6.9187957,45.8211658 6.58517204,45.8216578 Z" id="Shape"></path>
            </g>
        </g>
    </g>
</svg>