<?xml version="1.0" encoding="UTF-8"?>
<svg width="33px" height="24px" viewBox="0 0 33 24" version="1.1" xmlns="http://www.w3.org/2000/svg" xmlns:xlink="http://www.w3.org/1999/xlink">
    <!-- Generator: Sketch 48.2 (47327) - http://www.bohemiancoding.com/sketch -->
    <title>Group</title>
    <desc>Created with Sketch.</desc>
    <defs>
        <polygon id="path-1" points="1.11824184e-18 4.73900843e-15 1.11824184e-18 24 33 24 33 0 0 1.42170253e-14"></polygon>
    </defs>
    <g id="Page-1" stroke="none" stroke-width="1" fill="none" fill-rule="evenodd">
        <g id="Group">
            <polygon id="Fill-1" fill="#000000" points="7 14 8 14 8 13 7 13"></polygon>
            <polygon id="Fill-2" fill="#000000" points="9 14 10 14 10 13 9 13"></polygon>
            <polygon id="Fill-3" fill="#000000" points="12 14 13 14 13 13 12 13"></polygon>
            <polygon id="Fill-4" fill="#000000" points="14 14 15 14 15 13 14 13"></polygon>
            <polygon id="Fill-5" fill="#000000" points="17 14 18 14 18 13 17 13"></polygon>
            <polygon id="Fill-6" fill="#000000" points="19.8984721 6 19 5.46803793 20.1018722 4 21 4.53165622"></polygon>
            <mask id="mask-2" fill="white">
                <use xlink:href="#path-1"></use>
            </mask>
            <g id="Clip-8"></g>
            <polygon id="Fill-7" fill="#000000" mask="url(#mask-2)" points="21.8981665 6 21 5.46803793 22.1019196 4 23 4.53165622"></polygon>
            <path d="M28.1452532,22.9435415 L32.7859361,13.3391229 L26.8020566,13.3391229 L26.8020566,9.07068693 L24.7394056,9.07068693 L24.7394056,3.2016396 L17.541638,3.2016396 L17.541638,9.07068693 L15.4582815,9.07068693 L15.4582815,0 L9.2918394,0 L9.2918394,9.07068693 L4.13561457,9.07068693 L4.13561457,16.5407625 L1.04171855,16.5407625 L1.04171855,17.063406 C1.04171855,19.5417317 2.30652438,21.7194268 4.20264549,22.9435415 L0,22.9435415 L0,23.9889119 L24.2450525,23.9889119 L24.2450525,24 L25.2552697,24 L25.2552697,23.9889119 L33,23.9889119 L33,22.9435415 L28.1452532,22.9435415 Z M18.5519358,6.9363439 L23.7291883,6.9363439 L23.7291883,4.24700999 L18.5519358,4.24700999 L18.5519358,6.9363439 Z M18.5519358,9.07068693 L23.7291883,9.07068693 L23.7291883,7.98196439 L18.5519358,7.98196439 L18.5519358,9.07068693 Z M10.3020566,1.60069475 L14.4480642,1.60069475 L14.4480642,1.04537039 L10.3020566,1.04537039 L10.3020566,1.60069475 Z M10.3020566,9.07068693 L14.4480642,9.07068693 L14.4480642,2.64606513 L10.3020566,2.64606513 L10.3020566,9.07068693 Z M5.14583181,11.2051133 L25.7915171,11.2051133 L25.7915171,10.1160573 L5.14583181,10.1160573 L5.14583181,11.2051133 Z M5.14583181,12.2504837 L25.7915171,12.2504837 L25.7915171,13.3394564 L20.9537698,13.3394564 L17.3443318,16.5407625 L5.14583181,16.5407625 L5.14583181,12.2504837 Z M27.0157177,22.9435415 L25.2552697,22.9435415 L25.2552697,22.9328702 L24.2450525,22.9328702 L24.2450525,22.9435415 L7.73433723,22.9435415 C6.50949214,22.9435415 5.37431702,22.5394494 4.44531033,21.8545688 L27.5418943,21.8545688 L27.0157177,22.9435415 Z M3.35734689,20.8091984 C2.64329032,19.917228 2.17842442,18.8044116 2.07425257,17.5861329 L17.7182387,17.5861329 L21.3273544,14.3844933 L31.1513323,14.3844933 L28.0470432,20.8091984 L3.35734689,20.8091984 Z" id="Fill-9" fill="#000000" mask="url(#mask-2)"></path>
            <polygon id="Fill-11" fill="#000000" mask="url(#mask-2)" points="23 17.3149809 24.5100295 17.3149809 24.5100295 18 25.489658 18 25.489658 17.3149809 27 17.3149809 27 16 23 16"></polygon>
            <polygon id="Fill-12" fill="#000000" mask="url(#mask-2)" points="25.5527824 18.5598863 25.5527824 18 24.446953 18 24.446953 18.5598863 23.6132816 18.0885763 23 18.8687813 24.9998236 20 27 18.8687813 26.3864538 18.0885763"></polygon>
            <polygon id="Fill-22" fill="#000000" mask="url(#mask-2)" points="5 19 10 19 10 18 5 18"></polygon>
        </g>
    </g>
</svg>